<?xml version="1.0" encoding="UTF-8"?>
<svg version="1.1" xmlns="http://www.w3.org/2000/svg" width="512" height="512">
<path d="M0 0 C1.80936035 0.01921509 1.80936035 0.01921509 3.65527344 0.03881836 C29.93751745 0.63261805 52.74098354 11.67038927 71 30.5 C85.44995321 47.1074115 92.20167571 67.91183984 92.1875 89.6875 C92.18814453 90.70529541 92.18878906 91.72309082 92.18945312 92.77172852 C92.13954104 99.87228911 91.66816579 106.5741331 90 113.5 C90.86625 114.015625 91.7325 114.53125 92.625 115.0625 C97.97374832 118.63678205 102.05517179 123.32650862 104 129.5 C104.80514105 137.33608208 105.12460392 145.11922577 100 151.5 C95.4024038 156.32795592 90.99663005 160.23032186 84.10546875 160.6953125 C83.14253906 160.67210937 82.17960937 160.64890625 81.1875 160.625 C80.21167969 160.60695312 79.23585938 160.58890625 78.23046875 160.5703125 C77.49441406 160.54710937 76.75835937 160.52390625 76 160.5 C74.28936428 166.72671403 72.89211547 172.83278402 72.125 179.25 C69.38313682 199.34962606 60.62164403 217.33758165 46 231.5 C45.06414062 232.08910156 44.12828125 232.67820312 43.1640625 233.28515625 C40.20975919 236.30878437 40.42872698 238.45825205 40.46289062 242.5703125 C40.49576172 243.45460938 40.52863281 244.33890625 40.5625 245.25 C40.56830078 246.11882812 40.57410156 246.98765625 40.58007812 247.8828125 C40.70537674 254.55872271 40.98536029 261.06122561 45.375 266.375 C49.50862655 269.72126912 52.65929722 270.76926653 57.93579102 271.41381836 C59.13547012 271.56415024 60.33514923 271.71448212 61.57118225 271.86936951 C63.51788063 272.10225426 63.51788063 272.10225426 65.50390625 272.33984375 C66.86523895 272.50842683 68.22647933 272.67775685 69.58763123 272.84779358 C73.18152855 273.29513621 76.77638563 273.73419445 80.37158203 274.17095947 C114.17987206 278.28397492 114.17987206 278.28397492 125.98828125 280.02734375 C127.05243004 280.17295998 127.05243004 280.17295998 128.13807678 280.32151794 C140.13333583 282.18357413 151.67859777 288.81635047 159 298.5 C165.9625896 309.14413587 168.45300497 318.60804633 168.40405273 331.23657227 C168.41434761 333.10658401 168.41434761 333.10658401 168.42485046 335.01437378 C168.43994045 338.40908462 168.44163395 341.80324286 168.43590808 345.19794583 C168.4328023 348.04087753 168.43892375 350.88376029 168.44494683 353.72668499 C168.45895506 360.43591469 168.45746061 367.14501695 168.44604492 373.85424805 C168.43455583 380.7589156 168.44866079 387.66319509 168.4754414 394.56781155 C168.49763695 400.51459332 168.50422747 406.46125361 168.49836498 412.40807384 C168.49500476 415.95180154 168.49734823 419.4952803 168.51461601 423.03897285 C168.53303388 426.99040949 168.51885835 430.94137249 168.50170898 434.89282227 C168.51137695 436.05616592 168.52104492 437.21950958 168.53100586 438.41810608 C168.45982621 446.25989493 167.34749133 451.67999996 162.03515625 457.7421875 C161.38417969 458.28101563 160.73320312 458.81984375 160.0625 459.375 C159.41410156 459.92929687 158.76570313 460.48359375 158.09765625 461.0546875 C154.08716256 463.81796993 150.52821057 464.74978909 145.69066143 464.75726891 C144.63365431 464.7637178 143.5766472 464.77016669 142.48760957 464.776811 C141.33256435 464.7737138 140.17751912 464.7706166 138.98747253 464.76742554 C137.75561212 464.77195665 136.52375171 464.77648776 135.2545622 464.78115618 C131.83795881 464.79162934 128.42156588 464.79312554 125.00496137 464.79076743 C121.31909322 464.79035931 117.63325647 464.80139799 113.94740295 464.81088257 C106.72702673 464.82749458 99.50668315 464.83299221 92.28628942 464.83410732 C86.41690685 464.83505772 80.54753506 464.83916758 74.6781559 464.84550858 C58.0362829 464.86312166 41.39443569 464.87234736 24.75255331 464.87084763 C23.85540945 464.87076772 22.95826559 464.8706878 22.03393555 464.87060547 C20.68657604 464.87048283 20.68657604 464.87048283 19.31199715 464.87035771 C4.7550575 464.86954482 -9.80177867 464.88868292 -24.35868839 464.9168822 C-39.30669673 464.94561054 -54.25465461 464.95942252 -69.20269126 464.95769465 C-77.59444434 464.95703072 -85.98608894 464.96252415 -94.37781715 464.98405075 C-101.52287023 465.00226192 -108.66776568 465.00661047 -115.81283192 464.9930319 C-119.45742269 464.98650182 -123.10171103 464.98638613 -126.74627304 465.0037384 C-130.69982926 465.02236801 -134.65294389 465.00991549 -138.60652161 464.99447632 C-139.75487466 465.00476344 -140.90322772 465.01505057 -142.08637935 465.02564943 C-149.85553945 464.95854244 -155.23695273 463.79758323 -161.2421875 458.53515625 C-161.78101563 457.88417969 -162.31984375 457.23320312 -162.875 456.5625 C-163.42929688 455.91410156 -163.98359375 455.26570313 -164.5546875 454.59765625 C-168.25589007 449.2259109 -168.24895887 444.5048923 -168.12841797 438.20043945 C-168.10927593 436.26915066 -168.09022728 434.33786094 -168.07125854 432.40657043 C-168.05760128 431.38330973 -168.04394402 430.36004902 -168.02987289 429.30578041 C-167.96500057 423.8101544 -167.96075102 418.31430626 -167.9453125 412.81835938 C-167.92198338 405.85891704 -167.88250823 398.90087342 -167.77734375 391.94213867 C-167.38310105 364.47889875 -168.43625404 341.24604561 -179.54492188 315.92868042 C-181.63761164 310.99756071 -183.23314765 305.96256437 -184.76953125 300.8359375 C-185.0293277 299.99232162 -185.28912415 299.14870575 -185.55679321 298.27952576 C-186.06137293 296.63988858 -186.56255012 294.99919998 -187.06011963 293.35742188 C-187.85542824 290.73336153 -188.6612486 288.11267028 -189.46826172 285.4921875 C-192.03208661 277.14016157 -194.50647515 268.77369574 -196.8347168 260.35253906 C-199.87308989 249.38548587 -203.88591527 239.08881125 -208.53369141 228.6953125 C-208.99694824 227.65375 -209.46020508 226.6121875 -209.9375 225.5390625 C-210.56978516 224.15001709 -210.56978516 224.15001709 -211.21484375 222.73291016 C-211.47394531 221.9960498 -211.73304688 221.25918945 -212 220.5 C-210.41861364 217.33722728 -207.67403949 217.06906311 -204.4375 215.875 C-203.23996094 215.42898437 -202.04242188 214.98296875 -200.80859375 214.5234375 C-199.41833984 214.01683594 -199.41833984 214.01683594 -198 213.5 C-201.90114092 207.47431882 -206.03854119 201.74551953 -210.5 196.125 C-215.4009906 189.88897487 -220.19382553 183.59014726 -224.875 177.1875 C-229.96287763 170.22978037 -235.14034493 163.34793866 -240.375 156.5 C-241.05087158 155.60917725 -241.72674316 154.71835449 -242.4230957 153.80053711 C-245.17564268 150.17399255 -247.92592638 146.55853436 -250.82421875 143.046875 C-251.56285156 142.12390625 -252.30148438 141.2009375 -253.0625 140.25 C-253.67222656 139.52296875 -254.28195313 138.7959375 -254.91015625 138.046875 C-258.28609384 130.15758716 -253.13984803 118.77723095 -251 110.81640625 C-250.59975776 109.30961728 -250.20002668 107.80269244 -249.80078125 106.29563904 C-248.96748104 103.15541897 -248.12998668 100.01636071 -247.2890625 96.87817383 C-246.21037988 92.85244927 -245.13935142 88.82473942 -244.07104492 84.79625034 C-243.24772414 81.69287309 -242.4219282 78.59015932 -241.59521484 75.48768425 C-241.19928469 74.00180048 -240.80377496 72.51580461 -240.40869141 71.02969551 C-239.8580907 68.96131331 -239.30452625 66.89374875 -238.75 64.82641602 C-238.43546875 63.64999039 -238.1209375 62.47356476 -237.796875 61.26148987 C-237 58.5 -237 58.5 -236 56.5 C-231.72715564 57.43714493 -228.21822486 59.4283425 -224.4375 61.5625 C-223.27686035 62.21255005 -223.27686035 62.21255005 -222.09277344 62.87573242 C-212.00261065 68.56929946 -202.06330989 74.52388073 -192.11296082 80.45706177 C-188.22008019 82.77720159 -184.31945073 85.08379594 -180.4140625 87.3828125 C-179.39344727 87.98375732 -178.37283203 88.58470215 -177.32128906 89.20385742 C-175.39413742 90.3378236 -173.46642534 91.47083802 -171.53808594 92.6027832 C-170.68762695 93.10382568 -169.83716797 93.60486816 -168.9609375 94.12109375 C-168.21634277 94.5586499 -167.47174805 94.99620605 -166.70458984 95.44702148 C-165 96.5 -165 96.5 -164 97.5 C-163.48541023 100.39660805 -163.02686012 103.28470023 -162.60131836 106.19482422 C-162.39627434 107.56306839 -162.39627434 107.56306839 -162.18708801 108.95895386 C-161.73392299 111.99027202 -161.28678798 115.02244637 -160.83984375 118.0546875 C-160.52768986 120.15361931 -160.21523185 122.25250592 -159.90248108 124.35134888 C-159.24677486 128.75777943 -158.59388717 133.16461541 -157.94311523 137.57177734 C-157.10786668 143.22756552 -156.26705587 148.88250873 -155.42430782 154.53718376 C-154.77831628 158.87426154 -154.13458364 163.21167209 -153.49160957 167.54919815 C-153.18234498 169.6345326 -152.87253519 171.71978627 -152.56217766 173.80495834 C-152.12902037 176.7184484 -151.6987347 179.63234786 -151.26928711 182.54638672 C-151.07527817 183.84630554 -151.07527817 183.84630554 -150.87734985 185.17248535 C-150.41756928 188.30851239 -150 191.3256616 -150 194.5 C-145.05 192.52 -140.1 190.54 -135 188.5 C-128.39793057 202.37781942 -128.39793057 202.37781942 -125.61523438 209.56616211 C-122.39831097 217.81686622 -118.39829843 225.33537341 -113.91552734 232.96557617 C-109.5084557 240.49894421 -105.43200033 248.18071792 -101.4375 255.9375 C-100.84187256 257.0929834 -100.24624512 258.2484668 -99.63256836 259.43896484 C-98.08243894 262.45636003 -96.53595986 265.47536872 -95 268.5 C-94.44449463 269.56742432 -93.88898926 270.63484863 -93.31665039 271.73461914 C-92 274.5 -92 274.5 -92 276.5 C-91.45432373 276.37737793 -90.90864746 276.25475586 -90.34643555 276.12841797 C-85.15305482 275.02087756 -79.97966896 274.20573469 -74.70703125 273.5703125 C-73.41732422 273.41433594 -72.12761719 273.25835937 -70.79882812 273.09765625 C-68.79862624 272.85817295 -66.79830477 272.62342218 -64.79614258 272.40087891 C-54.22836963 271.30595618 -54.22836963 271.30595618 -45 266.5 C-39.19045609 259.14124438 -39.90739378 246.66463351 -40.59716797 237.69238281 C-41.18555728 234.49011854 -42.44323554 233.03879008 -44.9375 231 C-45.75992188 230.443125 -46.58234375 229.88625 -47.4296875 229.3125 C-56.52534676 222.89853967 -61.38669375 211.36226423 -66.01171875 201.57324219 C-67.6443279 198.14831213 -69.35723095 194.76416057 -71.0625 191.375 C-71.72422236 190.04961095 -72.38568311 188.72409126 -73.046875 187.3984375 C-74.33811296 184.81467293 -75.64081851 182.23718659 -76.953125 179.6640625 C-77.26411133 179.05119385 -77.57509766 178.4383252 -77.89550781 177.80688477 C-78.78252981 176.05905468 -79.67246444 174.31270369 -80.5625 172.56640625 C-81.76646455 169.99816664 -82.57990751 167.65928461 -83.3125 164.9375 C-85.52796576 160.4245142 -87.94645073 159.78048331 -92.421875 157.84375 C-97.32640178 155.28745119 -100.70978822 151.07609398 -103.1640625 146.17578125 C-105.26080902 139.46423282 -105.25496418 131.1150391 -102.125 124.75 C-100 121.5 -100 121.5 -98 119.5 C-98.35522057 113.84977285 -99.35540517 108.39763503 -100.46044922 102.85229492 C-105.05352585 79.63543565 -107.27816387 53.9040332 -93.75 33.0625 C-88.40220232 26.00943929 -81.67302016 20.64594325 -73 18.5 C-71.7625 18.44199219 -70.525 18.38398437 -69.25 18.32421875 C-61.08389464 17.4769186 -53.39451625 13.45090288 -45.88720703 10.30102539 C-30.8177321 4.01245124 -16.49621686 -0.27257697 0 0 Z " fill="#F25244" transform="translate(296,23.5)"/>
<path d="M0 0 C1.83022274 0.94239044 3.66096936 1.88376401 5.4921875 2.82421875 C8.34935157 4.29580976 11.20292764 5.77293466 14.04785156 7.26806641 C24.92736284 12.97308355 34.26980681 17.59953758 46.71875 18.28125 C48.39782159 18.43489751 50.07617401 18.59651915 51.75390625 18.76416016 C57.48858231 19.33418919 63.22779728 19.84153565 68.96875 20.34375 C71.9103702 20.60454395 74.85189542 20.86638537 77.793396 21.12852478 C79.60763631 21.28983712 81.42196147 21.45019943 83.23638916 21.60939026 C84.4888443 21.7197184 84.4888443 21.7197184 85.76660156 21.83227539 C86.58680786 21.90423126 87.40701416 21.97618713 88.2520752 22.05032349 C89.90935701 22.2054758 91.56530472 22.37553546 93.21960449 22.55978394 C102.45157332 23.58342216 111.38423804 23.36079341 120.6171875 22.4765625 C121.53223053 22.39252167 122.44727356 22.30848083 123.39004517 22.22189331 C126.29169317 21.95426663 129.19270241 21.68029981 132.09375 21.40625 C133.99866086 21.23006765 135.90360862 21.05428376 137.80859375 20.87890625 C141.58784356 20.53028312 145.36590606 20.17120075 149.14355469 19.80566406 C152.84005564 19.45010402 156.53701001 19.13212747 160.23925781 18.84277344 C161.12642487 18.76791718 162.01359192 18.69306091 162.92764282 18.61593628 C164.57734218 18.47687271 166.2280548 18.34907334 167.87973022 18.23587036 C177.50043328 17.38794181 185.68187945 12.9411455 194.09375 8.48046875 C195.83792249 7.57627857 197.58273385 6.67331989 199.328125 5.77148438 C202.03312188 4.36955826 204.73350252 2.96090906 207.42382812 1.53100586 C210.0527307 0.1374485 212.69615398 -1.2244011 215.34375 -2.58203125 C216.13571777 -3.0121199 216.92768555 -3.44220856 217.74365234 -3.8853302 C223.79499237 -6.94001077 228.1301756 -6.94213284 234.71875 -5.71875 C236.18269332 -5.50146919 237.64679963 -5.28528305 239.11108398 -5.0703125 C240.56290274 -4.83153837 242.01415077 -4.58927123 243.46484375 -4.34375 C244.63153343 -4.14966553 244.63153343 -4.14966553 245.8217926 -3.95166016 C247.4445272 -3.68093054 249.06699914 -3.40862203 250.68920898 -3.13476562 C253.17426218 -2.71571262 255.66028773 -2.30283401 258.14648438 -1.890625 C259.73183148 -1.62536222 261.31712017 -1.35974997 262.90234375 -1.09375 C264.01324623 -0.9093335 264.01324623 -0.9093335 265.14659119 -0.72119141 C268.10132503 -0.21965992 270.87006061 0.33168687 273.71875 1.28125 C273.811546 13.52948067 273.88256396 25.77762731 273.92599869 38.02613831 C273.94684819 43.71400393 273.97511804 49.40162854 274.02050781 55.08935547 C274.06405904 60.58124146 274.08790694 66.07289602 274.09825897 71.56494141 C274.10563365 73.6572636 274.12003468 75.74957354 274.14167023 77.84179688 C274.17082715 80.77892143 274.17470082 83.7150971 274.17285156 86.65234375 C274.18723267 87.5119017 274.20161377 88.37145966 274.21643066 89.25706482 C274.16983991 96.12318497 272.30459608 101.33040378 267.75390625 106.5234375 C267.10292969 107.06226563 266.45195312 107.60109375 265.78125 108.15625 C265.13285156 108.71054687 264.48445313 109.26484375 263.81640625 109.8359375 C259.80591256 112.59921993 256.24696057 113.53103909 251.40941143 113.53851891 C250.35240431 113.5449678 249.2953972 113.55141669 248.20635957 113.558061 C247.05131435 113.5549638 245.89626912 113.5518666 244.70622253 113.54867554 C243.47436212 113.55320665 242.24250171 113.55773776 240.9733122 113.56240618 C237.55670881 113.57287934 234.14031588 113.57437554 230.72371137 113.57201743 C227.03784322 113.57160931 223.35200647 113.58264799 219.66615295 113.59213257 C212.44577673 113.60874458 205.22543315 113.61424221 198.00503942 113.61535732 C192.13565685 113.61630772 186.26628506 113.62041758 180.3969059 113.62675858 C163.7550329 113.64437166 147.11318569 113.65359736 130.47130331 113.65209763 C129.57415945 113.65201772 128.67701559 113.6519378 127.75268555 113.65185547 C126.40532604 113.65173283 126.40532604 113.65173283 125.03074715 113.65160771 C110.4738075 113.65079482 95.91697133 113.66993292 81.36006161 113.6981322 C66.41205327 113.72686054 51.46409539 113.74067252 36.51605874 113.73894465 C28.12430566 113.73828072 19.73266106 113.74377415 11.34093285 113.76530075 C4.19587977 113.78351192 -2.94901568 113.78786047 -10.09408192 113.7742819 C-13.73867269 113.76775182 -17.38296103 113.76763613 -21.02752304 113.7849884 C-24.98107926 113.80361801 -28.93419389 113.79116549 -32.88777161 113.77572632 C-34.03612466 113.78601344 -35.18447772 113.79630057 -36.36762935 113.80689943 C-44.13678945 113.73979244 -49.51820273 112.57883323 -55.5234375 107.31640625 C-56.06226563 106.66542969 -56.60109375 106.01445312 -57.15625 105.34375 C-57.71054688 104.69535156 -58.26484375 104.04695313 -58.8359375 103.37890625 C-62.51620773 98.03754107 -62.56014199 93.26777517 -62.50830078 86.99291992 C-62.50859283 86.06560059 -62.50888489 85.13828125 -62.50918579 84.18286133 C-62.50779535 81.12571776 -62.49224749 78.06881961 -62.4765625 75.01171875 C-62.47283136 72.8889428 -62.46998486 70.76616513 -62.46798706 68.64338684 C-62.4603586 63.06205472 -62.44071679 57.48082705 -62.4185791 51.89953613 C-62.39810376 46.20191867 -62.38898173 40.50428429 -62.37890625 34.80664062 C-62.35747023 23.63146458 -62.32334371 12.45636598 -62.28125 1.28125 C-59.78337458 0.03231229 -57.58263594 -0.19153474 -54.8125 -0.5859375 C-53.13160278 -0.82932861 -53.13160278 -0.82932861 -51.41674805 -1.07763672 C-50.21703369 -1.2479541 -49.01731934 -1.41827148 -47.78125 -1.59375 C-37.71847087 -3.02039836 -37.71847087 -3.02039836 -27.69921875 -4.71875 C-26.88839844 -4.86715332 -26.07757813 -5.01555664 -25.2421875 -5.16845703 C-23.77235158 -5.44341989 -22.30463406 -5.73007655 -20.83984375 -6.03076172 C-12.8428636 -7.51248565 -6.86813482 -3.60374611 0 0 Z " fill="#FDC8A2" transform="translate(190.28125,374.71875)"/>
<path d="M0 0 C1.80936035 0.01921509 1.80936035 0.01921509 3.65527344 0.03881836 C29.93751745 0.63261805 52.74098354 11.67038927 71 30.5 C85.48343655 47.14589409 92.17327928 67.93541928 92.1875 89.75 C92.19974609 90.72324219 92.21199219 91.69648437 92.22460938 92.69921875 C92.23795059 99.39651114 91.85206346 106.02752559 90 112.5 C89.34 113.16 88.68 113.82 88 114.5 C85.6171875 114.4765625 85.6171875 114.4765625 82.875 114.125 C81.96492187 114.01414062 81.05484375 113.90328125 80.1171875 113.7890625 C79.41851562 113.69367188 78.71984375 113.59828125 78 113.5 C78.32307129 114.06299805 78.64614258 114.62599609 78.97900391 115.20605469 C80.76670087 119.22260195 80.36900339 123.41444825 80.375 127.75 C80.39949219 128.66652344 80.42398438 129.58304688 80.44921875 130.52734375 C80.47565692 136.70506183 79.52898072 141.35340659 76 146.5 C69.89512059 152.44834404 64.04132348 152.81662371 55.9140625 152.8359375 C54.45134415 152.8459227 54.45134415 152.8459227 52.95907593 152.85610962 C50.89981975 152.86621703 48.84053095 152.87092723 46.78125 152.87060547 C43.64267603 152.87497539 40.5055126 152.91130676 37.3671875 152.94921875 C35.36198395 152.95508807 33.35677376 152.95905669 31.3515625 152.9609375 C30.4190567 152.97530853 29.4865509 152.98967957 28.52578735 153.00448608 C22.47899892 152.96240889 18.9582845 152.01255567 14 148.5 C9.43242637 143.6855305 7.89349172 139.75206074 7.875 133.1875 C7.91625 131.640625 7.9575 130.09375 8 128.5 C2.72 128.5 -2.56 128.5 -8 128.5 C-7.9175 129.985 -7.835 131.47 -7.75 133 C-7.75758053 138.35185124 -8.89242067 142.1413173 -12 146.5 C-18.10487941 152.44834404 -23.95867652 152.81662371 -32.0859375 152.8359375 C-33.06108307 152.8425943 -34.03622864 152.8492511 -35.04092407 152.85610962 C-37.10018025 152.86621703 -39.15946905 152.87092723 -41.21875 152.87060547 C-44.35732397 152.87497539 -47.4944874 152.91130676 -50.6328125 152.94921875 C-52.63801605 152.95508807 -54.64322624 152.95905669 -56.6484375 152.9609375 C-57.5809433 152.97530853 -58.5134491 152.98967957 -59.47421265 153.00448608 C-65.52100108 152.96240889 -69.0417155 152.01255567 -74 148.5 C-80.03161555 142.14235118 -80.31887267 136.32274749 -80.25 127.9375 C-80.25773437 126.99197266 -80.26546875 126.04644531 -80.2734375 125.07226562 C-80.27085937 124.16025391 -80.26828125 123.24824219 -80.265625 122.30859375 C-80.26336914 121.48157959 -80.26111328 120.65456543 -80.25878906 119.80249023 C-79.97796543 117.30395472 -79.25135875 115.66253929 -78 113.5 C-83.75735529 113.08876034 -87.20958026 113.6814866 -92.23828125 116.52734375 C-94 117.5 -94 117.5 -97 118.5 C-103.73435572 90.47353561 -109.76479567 59.66363976 -94 33.5 C-88.74608032 26.06311369 -81.94457045 20.69050705 -73 18.5 C-71.17275391 18.42458984 -71.17275391 18.42458984 -69.30859375 18.34765625 C-61.11734748 17.47200317 -53.420965 13.46200011 -45.88720703 10.30102539 C-30.8177321 4.01245124 -16.49621686 -0.27257697 0 0 Z " fill="#784127" transform="translate(296,23.5)"/>
<path d="M0 0 C1.18529297 0.02707031 1.18529297 0.02707031 2.39453125 0.0546875 C2.98621094 0.07789063 3.57789063 0.10109375 4.1875 0.125 C3.86523438 0.73730469 3.54296875 1.34960938 3.2109375 1.98046875 C1.74812987 6.47497311 1.81905669 10.73962892 1.8125 15.4375 C1.78800781 16.34951172 1.76351562 17.26152344 1.73828125 18.20117188 C1.7118265 24.35190161 2.65795078 29.00773478 6.1875 34.125 C10.10328688 37.84977288 13.175372 39.23339719 18.53198242 39.30200195 C19.40686813 39.31483719 20.28175385 39.32767242 21.18315125 39.34089661 C22.12689102 39.34828354 23.0706308 39.35567047 24.04296875 39.36328125 C25.50637444 39.37538887 25.50637444 39.37538887 26.99934387 39.38774109 C29.0663577 39.40157531 31.1333943 39.41230042 33.20043945 39.42016602 C36.34566208 39.43733981 39.48982273 39.4812277 42.63476562 39.52539062 C44.64582563 39.53552143 46.65689454 39.54403632 48.66796875 39.55078125 C49.60158737 39.56828934 50.53520599 39.58579742 51.49711609 39.60383606 C57.56527852 39.58390355 62.12235215 38.57506895 67.1875 35.125 C72.3119076 29.86573956 72.3306522 23.12259037 73.1875 16.125 C78.4675 16.125 83.7475 16.125 89.1875 16.125 C89.435 18.14625 89.6825 20.1675 89.9375 22.25 C90.75853308 27.46497565 91.45502382 31.19076835 95.1875 35.125 C100.99308745 39.22028639 105.42646827 39.717713 112.43359375 39.65625 C113.40353775 39.6600769 114.37348175 39.66390381 115.37281799 39.66784668 C117.41595503 39.67055817 119.45912723 39.66325067 121.50219727 39.64648438 C124.61228681 39.62508746 127.72006036 39.64630041 130.83007812 39.671875 C132.82292172 39.66923113 134.81576388 39.66410494 136.80859375 39.65625 C138.19019936 39.66839539 138.19019936 39.66839539 139.59971619 39.68078613 C145.54506355 39.59538143 150.27257966 38.62354541 155.1875 35.125 C160.29626166 28.70629945 160.36969788 23.59714465 160.375 15.75 C160.38724609 14.80382812 160.39949219 13.85765625 160.41210938 12.8828125 C160.44011814 6.27935503 160.44011814 6.27935503 158.1875 0.125 C165.58726448 -0.18332352 171.56507973 0.46708256 177.4375 5.25 C183.4536576 11.04114383 185.40082399 15.73076819 185.6875 24.125 C185.44191924 31.31591149 184.28902512 35.86807487 179.31640625 41.08984375 C173.99060054 46.01294204 169.7759698 48.42833662 162.375 48.25 C161.39917969 48.23195312 160.42335938 48.21390625 159.41796875 48.1953125 C158.31388672 48.16050781 158.31388672 48.16050781 157.1875 48.125 C155.47686428 54.35171403 154.07961547 60.45778402 153.3125 66.875 C150.57063682 86.97462606 141.80914403 104.96258165 127.1875 119.125 C126.25164062 119.71410156 125.31578125 120.30320312 124.3515625 120.91015625 C121.39725919 123.93378437 121.61622698 126.08325205 121.65039062 130.1953125 C121.68326172 131.07960938 121.71613281 131.96390625 121.75 132.875 C121.75580078 133.74382812 121.76160156 134.61265625 121.76757812 135.5078125 C121.89128516 142.09892324 122.20713682 148.57881877 126.375 153.9375 C129.5835982 156.43307638 132.39310815 157.71140304 136.1875 159.125 C134.88268407 164.14294925 132.65147054 167.37750942 129.125 171.0625 C128.63185303 171.58465088 128.13870605 172.10680176 127.63061523 172.64477539 C115.11682297 185.65920009 99.83223654 192.0710905 81.6875 192.5 C64.44509271 192.05743308 49.37266387 185.45719451 37.1875 173.125 C33.86869677 169.00747066 30.9908251 164.60339837 28.1875 160.125 C29.98509056 158.23334947 31.36937759 157.02496733 33.6875 155.75 C36.6471266 153.82624271 37.7052683 152.31179814 39.1875 149.125 C40.93388474 140.8613099 43.21410631 127.89207969 38.49609375 120.4609375 C36.26196234 118.57861864 36.26196234 118.57861864 33.7578125 116.9375 C24.66215324 110.52353967 19.80080625 98.98726423 15.17578125 89.19824219 C13.5431721 85.77331213 11.83026905 82.38916057 10.125 79 C9.46327764 77.67461095 8.80181689 76.34909126 8.140625 75.0234375 C6.84938704 72.43967293 5.54668149 69.86218659 4.234375 67.2890625 C3.92338867 66.67619385 3.61240234 66.0633252 3.29199219 65.43188477 C2.40497019 63.68405468 1.51503556 61.93770369 0.625 60.19140625 C-0.57896455 57.62316664 -1.39240751 55.28428461 -2.125 52.5625 C-4.34046576 48.0495142 -6.75895073 47.40548331 -11.234375 45.46875 C-16.13890178 42.91245119 -19.52228822 38.70109398 -21.9765625 33.80078125 C-23.99363046 27.34427867 -24.0712123 18.96635056 -21.375 12.6875 C-16.97922883 5.38738003 -8.59391746 -0.25653485 0 0 Z " fill="#FDBD8F" transform="translate(214.8125,135.875)"/>
<path d="M0 0 C4.27284436 0.93714493 7.78177514 2.9283425 11.5625 5.0625 C12.33625977 5.4958667 13.11001953 5.9292334 13.90722656 6.37573242 C23.99738935 12.06929946 33.93669011 18.02388073 43.88703918 23.95706177 C47.77991981 26.27720159 51.68054927 28.58379594 55.5859375 30.8828125 C56.60655273 31.48375732 57.62716797 32.08470215 58.67871094 32.70385742 C60.60586258 33.8378236 62.53357466 34.97083802 64.46191406 36.1027832 C65.31237305 36.60382568 66.16283203 37.10486816 67.0390625 37.62109375 C67.78365723 38.0586499 68.52825195 38.49620605 69.29541016 38.94702148 C71 40 71 40 72 41 C72.51458977 43.89660805 72.97313988 46.78470023 73.39868164 49.69482422 C73.60372566 51.06306839 73.60372566 51.06306839 73.81291199 52.45895386 C74.26607701 55.49027202 74.71321202 58.52244637 75.16015625 61.5546875 C75.47231014 63.65361931 75.78476815 65.75250592 76.09751892 67.85134888 C76.75322514 72.25777943 77.40611283 76.66461541 78.05688477 81.07177734 C78.89213332 86.72756552 79.73294413 92.38250873 80.57569218 98.03718376 C81.22168372 102.37426154 81.86541636 106.71167209 82.50839043 111.04919815 C82.81765502 113.1345326 83.12746481 115.21978627 83.43782234 117.30495834 C83.87097963 120.2184484 84.3012653 123.13234786 84.73071289 126.04638672 C84.86005219 126.91299927 84.98939148 127.77961182 85.12265015 128.67248535 C85.58243072 131.80851239 86 134.8256616 86 138 C90.95 136.02 95.9 134.04 101 132 C113 157.41176471 113 157.41176471 113 163 C112.04915527 163.36967896 112.04915527 163.36967896 111.07910156 163.74682617 C108.13549279 164.89224604 105.19274599 166.03986544 102.25 167.1875 C101.25355469 167.57486328 100.25710937 167.96222656 99.23046875 168.36132812 C94.30782995 170.2827452 89.40343698 172.23505237 84.53125 174.28125 C75.48487063 178.07472602 66.3605992 181.67681866 57.25 185.3125 C55.37757185 186.06046597 53.50517576 186.80851223 51.6328125 187.55664062 C47.08891064 189.37201902 42.54457693 191.18631225 38 193 C33.38272949 188.6539147 31.65938638 182.70215717 29.25 176.9375 C28.47076172 175.12282227 28.47076172 175.12282227 27.67578125 173.27148438 C27.18980469 172.11841797 26.70382813 170.96535156 26.203125 169.77734375 C25.75614258 168.71765381 25.30916016 167.65796387 24.84863281 166.56616211 C24 164 24 164 25 162 C27.15788312 161.05431417 29.35212122 160.19047955 31.5625 159.375 C32.76003906 158.92898437 33.95757812 158.48296875 35.19140625 158.0234375 C36.58166016 157.51683594 36.58166016 157.51683594 38 157 C34.09885908 150.97431882 29.96145881 145.24551953 25.5 139.625 C20.5990094 133.38897487 15.80617447 127.09014726 11.125 120.6875 C6.03712237 113.72978037 0.85965507 106.84793866 -4.375 100 C-5.05087158 99.10917725 -5.72674316 98.21835449 -6.4230957 97.30053711 C-9.17564268 93.67399255 -11.92592638 90.05853436 -14.82421875 86.546875 C-15.56285156 85.62390625 -16.30148438 84.7009375 -17.0625 83.75 C-17.67222656 83.02296875 -18.28195313 82.2959375 -18.91015625 81.546875 C-22.28609384 73.65758716 -17.13984803 62.27723095 -15 54.31640625 C-14.59975776 52.80961728 -14.20002668 51.30269244 -13.80078125 49.79563904 C-12.96748104 46.65541897 -12.12998668 43.51636071 -11.2890625 40.37817383 C-10.21037988 36.35244927 -9.13935142 32.32473942 -8.07104492 28.29625034 C-7.24772414 25.19287309 -6.4219282 22.09015932 -5.59521484 18.98768425 C-5.19928469 17.50180048 -4.80377496 16.01580461 -4.40869141 14.52969551 C-3.8580907 12.46131331 -3.30452625 10.39374875 -2.75 8.32641602 C-2.43546875 7.14999039 -2.1209375 5.97356476 -1.796875 4.76148987 C-1 2 -1 2 0 0 Z " fill="#D6D6D3" transform="translate(60,80)"/>
<path d="M0 0 C2.9464884 3.50953224 5.28940569 7.04995048 7.50390625 11.05859375 C7.82335205 11.63487015 8.14279785 12.21114655 8.47192383 12.80488586 C9.50800264 14.67925261 10.53601791 16.55786232 11.5625 18.4375 C11.91859344 19.08714722 12.27468689 19.73679443 12.64157104 20.40612793 C33.49892437 58.48945947 51.08881398 98.45517462 66.4375 139.0625 C66.8092334 140.04355713 67.1809668 141.02461426 67.56396484 142.03540039 C67.89219238 142.92219482 68.22041992 143.80898926 68.55859375 144.72265625 C68.98096313 145.86359741 68.98096313 145.86359741 69.41186523 147.02758789 C70 149 70 149 70 152 C68.20779424 151.88298313 66.41624915 151.75584692 64.625 151.625 C63.12839844 151.52058594 63.12839844 151.52058594 61.6015625 151.4140625 C52.70494866 150.39124139 45.80522084 148.27106974 37.9609375 143.921875 C36.06207354 142.91501357 34.16230434 141.90985784 32.26171875 140.90625 C29.3162752 139.33482427 26.37911683 137.75227297 23.45654297 136.13867188 C10.73517223 129.15102763 2.35027192 125.07769956 -12 129 C-13.99313778 129.36173609 -15.98912537 129.70831229 -17.98828125 130.03515625 C-20.6588801 130.54301417 -23.3264058 131.06522444 -25.99414062 131.58789062 C-32.31362266 132.78919056 -38.58538603 133.52412928 -45 134 C-45.23976563 132.76636719 -45.47953125 131.53273438 -45.7265625 130.26171875 C-47.06804837 124.24376165 -49.23075149 118.58271326 -51.375 112.8125 C-59.56729339 90.30304683 -66.70362384 67.39686446 -73.3125 44.375 C-73.60858154 43.36284424 -73.90466309 42.35068848 -74.2097168 41.30786133 C-74.46664307 40.38900146 -74.72356934 39.4701416 -74.98828125 38.5234375 C-75.21040283 37.73888184 -75.43252441 36.95432617 -75.66137695 36.14599609 C-76.05228006 33.66867934 -75.90077394 32.33781675 -75 30 C-73.30595398 28.88946533 -73.30595398 28.88946533 -71.07299805 28.02050781 C-70.23669357 27.68625793 -69.4003891 27.35200806 -68.53874207 27.00762939 C-67.62232437 26.65964294 -66.70590668 26.31165649 -65.76171875 25.953125 C-64.81174515 25.57822937 -63.86177155 25.20333374 -62.88301086 24.81707764 C-59.82335088 23.61339062 -56.75583654 22.431371 -53.6875 21.25 C-51.69279626 20.47018888 -49.69864871 19.68895346 -47.70507812 18.90625 C-43.74406572 17.35301382 -39.78017592 15.80748815 -35.81396484 14.26757812 C-27.95936333 11.21234713 -20.13825661 8.0741557 -12.31851196 4.93103027 C-8.21413918 3.2828631 -4.10696396 1.64169748 0 0 Z " fill="#3B4A5F" transform="translate(173,242)"/>
<path d="M0 0 C2.91201901 0.75532151 5.8312978 1.3608603 8.78222656 1.9453125 C13.73313118 2.92602239 18.66644785 3.96793879 23.59667969 5.04736328 C25.77728361 5.50551107 27.96437916 5.93325801 30.15527344 6.33935547 C39.85111601 8.14997868 49.05719834 10.7917362 58.43066406 13.8203125 C59.96411196 14.30926526 61.49772471 14.7977013 63.03149414 15.28564453 C73.53448745 18.63739551 84.0082084 22.07930438 94.45117188 25.61376953 C99.95322691 27.47383417 105.47036433 29.26577317 111.01708984 30.98852539 C118.79268132 33.41022166 126.55300522 35.87788086 134.30910301 38.36120796 C136.61152069 39.0983551 138.91416999 39.8347749 141.21687317 40.57102966 C147.75060255 42.6602429 154.28389405 44.75082416 160.81713867 46.84155273 C164.84895841 48.13173711 168.88100307 49.42121665 172.91317177 50.71030998 C175.15584898 51.4275408 177.39826395 52.14558711 179.64067078 52.86366272 C187.97120878 55.52849721 196.31427884 58.14472344 204.68066406 60.6953125 C204.68066406 61.0253125 204.68066406 61.3553125 204.68066406 61.6953125 C173.60530846 61.78659035 142.52998834 61.85736535 111.45453048 61.89957382 C107.78462817 61.90457656 104.11472613 61.90975386 100.44482422 61.91503906 C99.71422208 61.9160883 98.98361995 61.91713755 98.23087835 61.91821858 C86.40573137 61.9356172 74.58066227 61.96715187 62.75556147 62.00392368 C50.61919452 62.04134828 38.48286832 62.06355156 26.34644604 62.07166648 C18.85940563 62.07715112 11.37258541 62.09446503 3.88561279 62.12697837 C-1.85833229 62.15064959 -7.60213672 62.1531285 -13.34612083 62.14774323 C-15.70033307 62.14884357 -18.05455366 62.15679892 -20.4087162 62.1721344 C-23.62483405 62.19205703 -26.84001243 62.18724265 -30.05615234 62.17633057 C-30.98613194 62.18798193 -31.91611155 62.1996333 -32.87427235 62.21163774 C-39.93704105 62.14693584 -45.2087911 60.42110354 -50.56152344 55.73046875 C-51.10035156 55.07949219 -51.63917969 54.42851562 -52.19433594 53.7578125 C-52.74863281 53.10941406 -53.30292969 52.46101563 -53.87402344 51.79296875 C-57.12207051 47.07891124 -57.56133872 43.09864999 -57.51464844 37.42578125 C-57.51181854 36.74477859 -57.50898865 36.06377594 -57.506073 35.36213684 C-57.49494119 33.20217795 -57.4698505 31.04264456 -57.44433594 28.8828125 C-57.43429705 27.41211539 -57.42517279 25.94141174 -57.41699219 24.47070312 C-57.39502507 20.87876964 -57.36054414 17.28708265 -57.31933594 13.6953125 C-54.74761525 12.52263381 -52.1746752 11.35282221 -49.59960938 10.1875 C-47.4364679 9.2034928 -45.2780999 8.20891425 -43.125 7.203125 C-28.2155998 0.32117764 -16.37884492 -4.37271809 0 0 Z " fill="#FDB683" transform="translate(185.3193359375,426.3046875)"/>
<path d="M0 0 C1.18529297 0.02707031 1.18529297 0.02707031 2.39453125 0.0546875 C2.98621094 0.07789063 3.57789063 0.10109375 4.1875 0.125 C3.86523438 0.73730469 3.54296875 1.34960938 3.2109375 1.98046875 C1.74812987 6.47497311 1.81905669 10.73962892 1.8125 15.4375 C1.78800781 16.34951172 1.76351562 17.26152344 1.73828125 18.20117188 C1.7118265 24.35190161 2.65795078 29.00773478 6.1875 34.125 C10.10328688 37.84977288 13.175372 39.23339719 18.53198242 39.30200195 C19.40686813 39.31483719 20.28175385 39.32767242 21.18315125 39.34089661 C22.12689102 39.34828354 23.0706308 39.35567047 24.04296875 39.36328125 C25.50637444 39.37538887 25.50637444 39.37538887 26.99934387 39.38774109 C29.0663577 39.40157531 31.1333943 39.41230042 33.20043945 39.42016602 C36.34566208 39.43733981 39.48982273 39.4812277 42.63476562 39.52539062 C44.64582563 39.53552143 46.65689454 39.54403632 48.66796875 39.55078125 C49.60158737 39.56828934 50.53520599 39.58579742 51.49711609 39.60383606 C57.56527852 39.58390355 62.12235215 38.57506895 67.1875 35.125 C72.3119076 29.86573956 72.3306522 23.12259037 73.1875 16.125 C78.4675 16.125 83.7475 16.125 89.1875 16.125 C89.435 18.14625 89.6825 20.1675 89.9375 22.25 C91.03977011 29.25131567 92.4856825 33.08485209 98.25 37.4375 C103.16850155 39.78552288 103.16850155 39.78552288 113.1875 40.125 C113.1875 51.015 113.1875 61.905 113.1875 73.125 C112.8575 72.465 112.5275 71.805 112.1875 71.125 C111.47768478 71.28733124 110.76786957 71.44966248 110.0365448 71.61691284 C107.15728547 72.13038834 104.52512569 72.25197249 101.6027832 72.25439453 C99.96132072 72.25912277 99.96132072 72.25912277 98.28669739 72.26394653 C97.11572006 72.2619223 95.94474274 72.25989807 94.73828125 72.2578125 C92.92483467 72.25924759 92.92483467 72.25924759 91.07475281 72.26071167 C88.52371163 72.26139136 85.9726687 72.2595518 83.42163086 72.25537109 C79.50435539 72.25000597 75.58719385 72.25533042 71.66992188 72.26171875 C69.19270808 72.26105821 66.71549435 72.25977753 64.23828125 72.2578125 C63.06123123 72.25983673 61.88418121 72.26186096 60.67146301 72.26394653 C59.58661118 72.26079437 58.50175934 72.25764221 57.3840332 72.25439453 C55.94771294 72.25320114 55.94771294 72.25320114 54.4823761 72.25198364 C52.1875 72.125 52.1875 72.125 50.1875 71.125 C50.12691406 72.02863281 50.06632812 72.93226563 50.00390625 73.86328125 C49.87822266 75.63251953 49.87822266 75.63251953 49.75 77.4375 C49.62818359 79.19513672 49.62818359 79.19513672 49.50390625 80.98828125 C49.1875 84.125 49.1875 84.125 48.1875 87.125 C68.9775 87.455 89.7675 87.785 111.1875 88.125 C106.43016007 107.1543597 97.62875009 120.19613727 82.1875 132.125 C81.62804687 132.5684375 81.06859375 133.011875 80.4921875 133.46875 C76.26264853 136.3802466 72.85695861 136.5386217 67.984375 135.79296875 C48.74087323 131.1971045 32.63606192 119.89173564 22.1875 103.125 C19.62716182 98.59406445 17.39797996 93.901601 15.17578125 89.19824219 C13.5431721 85.77331213 11.83026905 82.38916057 10.125 79 C9.46327764 77.67461095 8.80181689 76.34909126 8.140625 75.0234375 C6.84938704 72.43967293 5.54668149 69.86218659 4.234375 67.2890625 C3.92338867 66.67619385 3.61240234 66.0633252 3.29199219 65.43188477 C2.40497019 63.68405468 1.51503556 61.93770369 0.625 60.19140625 C-0.57896455 57.62316664 -1.39240751 55.28428461 -2.125 52.5625 C-4.34046576 48.0495142 -6.75895073 47.40548331 -11.234375 45.46875 C-16.13890178 42.91245119 -19.52228822 38.70109398 -21.9765625 33.80078125 C-23.99363046 27.34427867 -24.0712123 18.96635056 -21.375 12.6875 C-16.97922883 5.38738003 -8.59391746 -0.25653485 0 0 Z " fill="#FDC8A2" transform="translate(214.8125,135.875)"/>
<path d="M0 0 C20.15009596 -0.74301871 34.68335253 1.62662414 50.1875 15.5 C51.79624066 16.99509336 53.40071785 18.49479327 55 20 C66.63217829 30.64562273 76.54572171 39.40500513 92.74609375 39.51171875 C93.75720718 39.52966995 94.76832062 39.54762115 95.81007385 39.56611633 C99.0191743 39.62002042 102.22812769 39.65405149 105.4375 39.6875 C107.62176516 39.7206906 109.80601098 39.75518186 111.99023438 39.79101562 C117.32684177 39.87816873 122.66279229 39.93840867 128 40 C128 48.91 128 57.82 128 67 C125.03 66.01 125.03 66.01 122 65 C119.63284546 64.69346391 119.63284546 64.69346391 117.29907227 64.70947266 C116.42118546 64.69671295 115.54329865 64.68395325 114.6388092 64.67080688 C113.70741623 64.66858124 112.77602325 64.66635559 111.81640625 64.6640625 C110.84267563 64.6574057 109.86894501 64.6507489 108.8657074 64.64389038 C106.81242758 64.63379419 104.75911516 64.62907242 102.70581055 64.62939453 C99.57610768 64.62501902 96.44781333 64.58866036 93.31835938 64.55078125 C91.31771313 64.54491281 89.31706022 64.5409436 87.31640625 64.5390625 C86.38703751 64.52469147 85.45766876 64.51032043 84.50013733 64.49551392 C78.45475884 64.53773541 74.95445449 65.48501271 70 69 C69.46157471 69.56783203 68.92314941 70.13566406 68.3684082 70.72070312 C65.35456386 73.53828463 60.08093475 72.51006706 56.1875 72.5 C55.20201172 72.52835937 54.21652344 72.55671875 53.20117188 72.5859375 C45.07562828 72.60776569 45.07562828 72.60776569 41.55078125 69.59375 C40.70902344 68.7378125 39.86726563 67.881875 39 67 C36.03410029 65.18566362 33.77853135 64.73810766 30.32324219 64.68115234 C29.40258972 64.66128265 28.48193726 64.64141296 27.53338623 64.62094116 C26.54783752 64.60938995 25.56228882 64.59783875 24.546875 64.5859375 C23.53151672 64.56657135 22.51615845 64.5472052 21.47003174 64.5272522 C18.23010635 64.46751901 14.99014532 64.42109572 11.75 64.375 C9.55206792 64.33681449 7.35415072 64.29776242 5.15625 64.2578125 C-0.22903456 64.16182265 -5.61440883 64.07675677 -11 64 C-9.90555701 60.68437792 -8.79564857 57.383812 -7.5625 54.1171875 C-7.30726563 53.42367187 -7.05203125 52.73015625 -6.7890625 52.015625 C-6.27061916 50.60915496 -5.74478722 49.20538231 -5.2109375 47.8046875 C-1.17983877 36.72934552 -0.65692805 25.43826695 -0.375 13.75 C-0.33669011 12.4075304 -0.29763159 11.06508194 -0.2578125 9.72265625 C-0.16455333 6.48190024 -0.07875536 3.24113534 0 0 Z " fill="#FDC8A2" transform="translate(240,64)"/>
<path d="M0 0 C9.39675363 0.40855451 16.88669084 6.06856263 23.18359375 12.734375 C26.44928104 16.80770538 28.89804644 21.23185165 31 26 C31.27287842 26.57242432 31.54575684 27.14484863 31.8269043 27.73461914 C35.07918744 35.63794483 34.32552008 44.18146957 34.1875 52.5625 C34.17242639 54.15949259 34.15874272 55.75649894 34.14648438 57.35351562 C34.11368925 61.23602124 34.06205574 65.11785633 34 69 C30.97840231 68.58838917 27.95768796 68.17176922 24.9375 67.75 C24.00534668 67.62012695 23.07319336 67.49025391 22.11279297 67.35644531 C16.96580837 66.62226197 11.84446628 65.81308471 6.73046875 64.875 C5.71025635 64.6884082 4.69004395 64.50181641 3.63891602 64.30957031 C1.66753791 63.94355989 -0.30214693 63.56827701 -2.26977539 63.18261719 C-3.17848389 63.01407227 -4.08719238 62.84552734 -5.0234375 62.671875 C-5.81669434 62.5181543 -6.60995117 62.36443359 -7.42724609 62.20605469 C-15.03086712 61.59707232 -20.61296414 64.48243139 -27.16796875 67.875 C-28.60382072 68.60178955 -28.60382072 68.60178955 -30.06867981 69.34326172 C-33.1132012 70.88605731 -36.15062747 72.44220979 -39.1875 74 C-42.23609827 75.55566727 -45.28611847 77.10841879 -48.3384552 78.65673828 C-50.23401477 79.61910499 -52.12724929 80.58606817 -54.01786804 81.55810547 C-54.87588516 81.99525879 -55.73390228 82.43241211 -56.61791992 82.8828125 C-57.36957932 83.26840332 -58.12123871 83.65399414 -58.89567566 84.05126953 C-63.23683965 86.00847473 -67.00475568 86.10995244 -71.75 86.0625 C-72.92046875 86.05347656 -74.0909375 86.04445313 -75.296875 86.03515625 C-76.63492187 86.01775391 -76.63492187 86.01775391 -78 86 C-74.4027123 82.35633842 -70.71022111 78.83709373 -66.9375 75.375 C-66.37458252 74.85647461 -65.81166504 74.33794922 -65.23168945 73.80371094 C-62.41690434 71.21270852 -59.59542325 68.62928308 -56.765625 66.0546875 C-49.08193859 59.05954236 -41.60811305 52.00205718 -34.83203125 44.109375 C-32.84688413 41.82370454 -30.7996017 39.60298622 -28.75 37.375 C-18.28403039 25.75599984 -8.67135042 13.00702563 0 0 Z " fill="#EA4A3B" transform="translate(430,307)"/>
<path d="M0 0 C1.46394332 0.21728081 2.92804963 0.43346695 4.39233398 0.6484375 C5.84415274 0.88721163 7.29540077 1.12947877 8.74609375 1.375 C9.52388687 1.50438965 10.30167999 1.6337793 11.1030426 1.76708984 C12.7257772 2.03781946 14.34824914 2.31012797 15.97045898 2.58398438 C18.45551218 3.00303738 20.94153773 3.41591599 23.42773438 3.828125 C25.01308148 4.09338778 26.59837017 4.35900003 28.18359375 4.625 C29.29449623 4.8094165 29.29449623 4.8094165 30.42784119 4.99755859 C33.38257503 5.49909008 36.15131061 6.05043687 39 7 C39 20.2 39 33.4 39 47 C28.38881794 46.37581282 17.87591527 45.69198138 7.3137207 44.63305664 C5.9416819 44.49795629 4.56961574 44.36313354 3.19752502 44.2285614 C-0.46737531 43.86815709 -4.13183356 43.50344554 -7.79618049 43.1374619 C-10.09229851 42.90835223 -12.38851284 42.68023349 -14.68476295 42.45245171 C-22.71263583 41.65610098 -30.74015088 40.85625165 -38.76733398 40.05297852 C-46.22811616 39.3064777 -53.6896421 38.56776191 -61.15154713 37.83257776 C-67.5889452 37.19799232 -74.02579729 36.55806099 -80.46225101 35.91396803 C-84.293791 35.53063601 -88.12551295 35.1494353 -91.95779991 34.77363777 C-95.55121323 34.42107822 -99.14389928 34.06185647 -102.7361393 33.69754219 C-104.67621214 33.50245655 -106.61696911 33.31421218 -108.55773926 33.12619019 C-109.71940109 33.00708786 -110.88106293 32.88798553 -112.07792664 32.76527405 C-113.0827241 32.66517564 -114.08752157 32.56507723 -115.12276745 32.46194553 C-118.23612556 31.96208956 -121.03929544 31.07195212 -124 30 C-124 29.67 -124 29.34 -124 29 C-122.15776855 28.83395264 -122.15776855 28.83395264 -120.27832031 28.66455078 C-115.6187268 28.24430099 -110.9592506 27.82276183 -106.29980469 27.40087891 C-104.30243948 27.22020146 -102.30504471 27.03985053 -100.30761719 26.85986328 C-95.449804 26.42202413 -90.5926294 25.97873289 -85.73632812 25.52441406 C-81.97123617 25.1735173 -78.20553185 24.85493025 -74.43554688 24.56152344 C-72.68097754 24.41355419 -70.92641969 24.26544863 -69.171875 24.1171875 C-68.3916095 24.06354034 -67.61134399 24.00989319 -66.80743408 23.95462036 C-57.20278268 23.10452684 -49.02287662 18.65247475 -40.625 14.19921875 C-38.88082751 13.29502857 -37.13601615 12.39206989 -35.390625 11.49023438 C-32.68562812 10.08830826 -29.98524748 8.67965906 -27.29492188 7.24975586 C-24.6660193 5.8561985 -22.02259602 4.4943489 -19.375 3.13671875 C-18.58303223 2.7066301 -17.79106445 2.27654144 -16.97509766 1.8334198 C-10.92375763 -1.22126077 -6.5885744 -1.22338284 0 0 Z " fill="#FDB683" transform="translate(425,369)"/>
<path d="M0 0 C0.68964844 0.38671875 1.37929688 0.7734375 2.08984375 1.171875 C20.03065864 11.11438421 38.22177012 15.80837961 58.6875 10.375 C64.87288798 8.29587799 70.40499687 5.31906965 76 2 C77.32697633 1.32076805 78.65812182 0.6492959 80 0 C80.15855469 0.80824219 80.31710937 1.61648438 80.48046875 2.44921875 C82.2193622 10.89759787 82.2193622 10.89759787 88 17 C90.30840955 18.17100193 92.56576725 19.09312898 95 20 C93.69518407 25.01794925 91.46397054 28.25250942 87.9375 31.9375 C87.44435303 32.45965088 86.95120605 32.98180176 86.44311523 33.51977539 C73.92932297 46.53420009 58.64473654 52.9460905 40.5 53.375 C23.25759271 52.93243308 8.18516387 46.33219451 -4 34 C-7.31880323 29.88247066 -10.1966749 25.47839837 -13 21 C-11.20240944 19.10834947 -9.81812241 17.89996733 -7.5 16.625 C-3.76602628 14.19791708 -2.43304973 11.76467767 -1.375 7.453125 C-0.87082253 4.97425243 -0.41191348 2.49571108 0 0 Z " fill="#FDC8A2" transform="translate(256,275)"/>
<path d="M0 0 C1.86009862 0.60517583 3.7201979 1.21034964 5.58032799 1.81542873 C7.54111913 2.45540171 9.50020078 3.10036584 11.45883179 3.74691772 C15.47753978 5.07343417 19.5005545 6.38648948 23.5246582 7.6965332 C24.8619302 8.13201287 26.19919523 8.56751391 27.53645325 9.0030365 C28.19470407 9.21740797 28.8529549 9.43177944 29.53115273 9.65264702 C31.51469924 10.2992062 33.49779397 10.94713307 35.48075867 11.59547424 C45.70391416 14.93664612 55.94985719 18.19779824 66.22265625 21.3828125 C66.88409637 21.58831726 67.5455365 21.79382202 68.22702026 22.0055542 C71.66187316 23.07268767 75.09774368 24.13645356 78.53515625 25.1953125 C78.53515625 25.5253125 78.53515625 25.8553125 78.53515625 26.1953125 C16.49515625 26.1953125 -45.54484375 26.1953125 -109.46484375 26.1953125 C-107.22730293 23.95777168 -105.89970733 23.53674538 -102.9140625 22.609375 C-101.98658203 22.31804687 -101.05910156 22.02671875 -100.10351562 21.7265625 C-99.12962891 21.4275 -98.15574219 21.1284375 -97.15234375 20.8203125 C-96.22099609 20.52898437 -95.28964844 20.23765625 -94.33007812 19.9375 C-90.38349727 18.70571296 -86.43199769 17.49036971 -82.47758484 16.28396606 C-74.90529779 13.96935958 -67.37088945 11.55472294 -59.84765625 9.0859375 C-57.50669585 8.32364906 -55.1655444 7.56194711 -52.82421875 6.80078125 C-49.18866703 5.61868447 -45.55424082 4.43359814 -41.92285156 3.23876953 C-38.37997737 2.07413881 -34.83306376 0.92262893 -31.28515625 -0.2265625 C-30.20275665 -0.58586853 -29.12035706 -0.94517456 -28.00515747 -1.31536865 C-17.30132201 -4.75621601 -10.52920909 -3.50585859 0 0 Z " fill="#EA4A3B" transform="translate(311.46484375,461.8046875)"/>
<path d="M0 0 C0.33 0 0.66 0 1 0 C1.24459961 1.27399658 1.48919922 2.54799316 1.74121094 3.8605957 C2.94680759 9.26357921 4.94924991 14.16139342 7.140625 19.23046875 C7.54528992 20.18335281 7.94995483 21.13623688 8.36688232 22.11799622 C9.65406161 25.14429051 10.9518212 28.16591027 12.25 31.1875 C13.10617245 33.19566367 13.96164713 35.20412498 14.81640625 37.21289062 C15.6535587 39.17712047 16.49079702 41.14131372 17.328125 43.10546875 C17.73349487 44.05759247 18.13886475 45.00971619 18.55651855 45.99069214 C20.32629973 50.13570831 22.10949296 54.27005671 23.98242188 58.36962891 C24.27203796 59.01273514 24.56165405 59.65584137 24.86004639 60.31843567 C25.60585778 61.96732591 26.36620164 63.60962269 27.12792969 65.2512207 C28.10397598 68.32773392 27.98200053 69.95613697 27 73 C26.67 73.33 26.34 73.66 26 74 C25.41788998 79.94423888 25.4902699 84.96938685 29 90 C30.91656368 91.83853564 32.87311333 93.39301896 35 95 C33.2010497 100.07634826 30.50973545 104.63713611 27.875 109.3125 C27.17310547 110.56643555 27.17310547 110.56643555 26.45703125 111.84570312 C25.3073741 113.89866233 24.15496198 115.95002202 23 118 C19 118 19 118 17.29931641 116.3737793 C16.73905762 115.61492432 16.17879883 114.85606934 15.6015625 114.07421875 C14.96395996 113.2236792 14.32635742 112.37313965 13.66943359 111.49682617 C12.99477051 110.56974854 12.32010742 109.6426709 11.625 108.6875 C10.9232666 107.74430908 10.2215332 106.80111816 9.49853516 105.8293457 C7.31991652 102.89519487 5.15919057 99.94846625 3 97 C1.68327467 95.21802323 0.36560914 93.43674069 -0.953125 91.65625 C-6.70295429 83.88388648 -6.70295429 83.88388648 -9.44628906 80.06787109 C-10.98204513 77.96781182 -10.98204513 77.96781182 -12.76464844 75.99853516 C-13.32442383 75.34546387 -13.88419922 74.69239258 -14.4609375 74.01953125 C-15.22736572 73.17998901 -15.22736572 73.17998901 -16.00927734 72.32348633 C-19.15245382 64.95197066 -14.36846621 54.11745909 -12.40234375 46.77734375 C-12.0444896 45.42271948 -11.68720443 44.06794479 -11.33045959 42.71302795 C-10.39740624 39.17541442 -9.45671997 35.6398759 -8.51434326 32.10473633 C-7.55110149 28.48577655 -6.59521149 24.86487647 -5.63867188 21.24414062 C-3.76624038 14.16085838 -1.88572813 7.07975542 0 0 Z " fill="#DFDFDD" transform="translate(57,89)"/>
<path d="M0 0 C4.37169663 2.18584832 5.81489042 9.48707318 7.625 13.8125 C8.140625 15.01455078 8.65625 16.21660156 9.1875 17.45507812 C9.67476563 18.61072266 10.16203125 19.76636719 10.6640625 20.95703125 C11.11217285 22.01897705 11.5602832 23.08092285 12.02197266 24.17504883 C13 27 13 27 13 31 C12.36610352 31.24645264 11.73220703 31.49290527 11.07910156 31.74682617 C8.13549279 32.89224604 5.19274599 34.03986544 2.25 35.1875 C1.25355469 35.57486328 0.25710937 35.96222656 -0.76953125 36.36132812 C-5.69217005 38.2827452 -10.59656302 40.23505237 -15.46875 42.28125 C-24.51512937 46.07472602 -33.6394008 49.67681866 -42.75 53.3125 C-44.62242815 54.06046597 -46.49482424 54.80851223 -48.3671875 55.55664062 C-52.91108936 57.37201902 -57.45542307 59.18631225 -62 61 C-66.61727051 56.6539147 -68.34061362 50.70215717 -70.75 44.9375 C-71.26949219 43.72771484 -71.78898437 42.51792969 -72.32421875 41.27148438 C-72.81019531 40.11841797 -73.29617187 38.96535156 -73.796875 37.77734375 C-74.24385742 36.71765381 -74.69083984 35.65796387 -75.15136719 34.56616211 C-76 32 -76 32 -75 30 C-72.97924805 29.09301758 -72.97924805 29.09301758 -70.26171875 28.14453125 C-69.23119385 27.77674561 -68.20066895 27.40895996 -67.13891602 27.0300293 C-65.99994873 26.62824463 -64.86098145 26.22645996 -63.6875 25.8125 C-52.00385342 21.5966196 -40.51426414 16.99640322 -29.0625 12.1875 C-28.30045258 11.86762115 -27.53840515 11.54774231 -26.75326538 11.21817017 C-24.53426868 10.28585958 -22.3158814 9.35211339 -20.09765625 8.41796875 C-19.39905991 8.12430923 -18.70046356 7.83064972 -17.98069763 7.52809143 C-14.75846318 6.17166915 -11.54447695 4.80149476 -8.33935547 3.40478516 C-7.2567041 2.93733887 -6.17405273 2.46989258 -5.05859375 1.98828125 C-4.12200928 1.57747314 -3.1854248 1.16666504 -2.22045898 0.7434082 C-1.48770752 0.4980835 -0.75495605 0.25275879 0 0 Z " fill="#FEB431" transform="translate(160,212)"/>
<path d="M0 0 C5.41606361 1.17324168 10.23976884 3.37344817 13.40185547 8.09179688 C14.71436662 10.76968645 15.84066495 13.47666126 16.9375 16.25 C17.38005127 17.29889404 17.82260254 18.34778809 18.27856445 19.4284668 C20.97606568 25.86528467 23.5386379 32.35447794 26.10069275 38.84616089 C27.57819788 42.5756604 29.07558896 46.2970494 30.57400513 50.01818848 C31.67540685 52.78215229 32.74316159 55.55762392 33.81030273 58.33496094 C34.50096559 60.06374138 35.19304315 61.79195748 35.88671875 63.51953125 C36.18237732 64.31645889 36.47803589 65.11338654 36.78265381 65.9344635 C38.519364 70.15696575 39.8940072 72.31680895 44.07348633 74.3347168 C44.7447908 74.59318893 45.41609528 74.85166107 46.10774231 75.1179657 C49.86860342 76.87100838 52.1742544 80.3485088 54 84 C54.54035594 88.9252115 54.54435469 92.86941718 52.375 97.375 C48.19586495 101.994044 43.99274152 104.71223639 37.75 105.3125 C31.9686388 104.8307199 28.53237969 102.65335704 24.625 98.4375 C22.26571653 94.8985748 21.84346891 92.16222165 21.8125 88 C21.79832031 87.13375 21.78414062 86.2675 21.76953125 85.375 C22 83 22 83 24 80 C23.6714925 74.99229201 21.15352751 70.26772859 19.2109375 65.703125 C18.82942535 64.79608826 18.44791321 63.88905151 18.05484009 62.95452881 C16.83260275 60.05115146 15.60401498 57.15051395 14.375 54.25 C13.57117088 52.34523927 12.76778122 50.44029302 11.96484375 48.53515625 C11.5708136 47.60086792 11.17678345 46.66657959 10.77081299 45.70397949 C9.98212768 43.83133432 9.19497228 41.95804406 8.40936279 40.08410645 C6.59164557 35.75145491 4.75616773 31.43043805 2.85253906 27.13476562 C2.52371735 26.3775824 2.19489563 25.62039917 1.85610962 24.840271 C1.25448582 23.45545849 0.64086115 22.07575732 0.0118103 20.70318604 C-2.61469217 14.58308998 -2.79703878 8.83945066 -1 2.4375 C-0.67 1.633125 -0.34 0.82875 0 0 Z " fill="#A4A4A2" transform="translate(60,80)"/>
<path d="M0 0 C8.06860764 3.838152 15.71807933 8.28127632 23.375 12.875 C25.10310522 13.90748202 26.83181452 14.93894664 28.56060791 15.97027588 C30.25397162 16.98057373 31.94681315 17.99174667 33.63964844 19.00292969 C38.74082001 22.03457626 43.86783579 25.02112608 49 28 C46.80485785 37.00724727 43.65122448 45.56076689 40.3125 54.1875 C39.79574045 55.53431979 39.27946128 56.881324 38.76367188 58.22851562 C37.51463118 61.48781638 36.25915807 64.74459234 35 68 C31.67919922 67.82519531 31.67919922 67.82519531 28 67 C26.32470703 64.82324219 26.32470703 64.82324219 25.1328125 61.796875 C24.6471582 60.61673828 24.16150391 59.43660156 23.66113281 58.22070312 C23.39981567 57.55272705 23.13849854 56.88475098 22.8692627 56.1965332 C21.91928588 53.79604411 20.91930578 51.42071298 19.90917969 49.04492188 C17.53607053 43.45831554 15.20392918 37.85513919 12.875 32.25 C11.67340928 29.36240764 10.47108772 26.47512373 9.26760864 23.58831787 C8.52508855 21.80679752 7.78369336 20.02480771 7.04367065 18.24224854 C5.02428415 13.39240213 2.93303623 8.58823585 0.73025513 3.81854248 C0 2 0 2 0 0 Z " fill="#DFDFDD" transform="translate(72,86)"/>
<path d="M0 0 C1.18529297 0.02707031 1.18529297 0.02707031 2.39453125 0.0546875 C2.98621094 0.07789063 3.57789063 0.10109375 4.1875 0.125 C3.86523438 0.73730469 3.54296875 1.34960938 3.2109375 1.98046875 C1.74812987 6.47497311 1.81905669 10.73962892 1.8125 15.4375 C1.78800781 16.34951172 1.76351562 17.26152344 1.73828125 18.20117188 C1.71191113 24.33222492 2.59507012 29.06268507 6.1875 34.125 C6.8875415 34.72868408 7.58758301 35.33236816 8.30883789 35.9543457 C10.85103679 38.8916674 10.61016857 40.59932926 10.47265625 44.4375 C10.44623047 45.67886719 10.41980469 46.92023438 10.39257812 48.19921875 C10.34552734 49.49472656 10.29847656 50.79023438 10.25 52.125 C9.9535924 60.80487633 10.05418634 68.38134335 12.62670898 76.734375 C13.1875 79.125 13.1875 79.125 12.1875 82.125 C10.4436563 79.07064243 8.7181473 76.00638341 7 72.9375 C6.48896729 72.02798584 5.97793457 71.11847168 5.45141602 70.18139648 C2.63957822 65.08237474 0.37612133 60.23484786 -1.375 54.6875 C-2.85258516 50.45035718 -2.85258516 50.45035718 -6.08203125 47.5078125 C-7.80075446 46.7193128 -9.54269623 45.97935639 -11.3046875 45.29296875 C-16.24601477 42.99163409 -19.57104037 38.60375328 -21.9765625 33.80078125 C-23.99363046 27.34427867 -24.0712123 18.96635056 -21.375 12.6875 C-16.97922883 5.38738003 -8.59391746 -0.25653485 0 0 Z " fill="#FDB683" transform="translate(214.8125,135.875)"/>
<path d="M0 0 C7.39976448 -0.30832352 13.37757973 0.34208256 19.25 5.125 C25.2661576 10.91614383 27.21332399 15.60576819 27.5 24 C27.25441924 31.19091149 26.10152512 35.74307487 21.12890625 40.96484375 C13.90892334 47.63889222 8.66577404 48.23291022 -1 48 C-2.485 53.94 -2.485 53.94 -4 60 C-4.33 60 -4.66 60 -5 60 C-5.31320385 56.25227692 -5.56814264 52.502791 -5.8125 48.75 C-5.90208984 47.68652344 -5.99167969 46.62304688 -6.08398438 45.52734375 C-6.25825084 42.6106735 -6.3622494 39.90029885 -6 37 C-3.69921875 34.703125 -3.69921875 34.703125 -1 33 C2.3735035 27.19375215 2.42822565 21.98524903 2.3125 15.375 C2.31572266 14.446875 2.31894531 13.51875 2.32226562 12.5625 C2.28604141 7.96531821 2.20239284 4.15910042 0 0 Z " fill="#FDB683" transform="translate(373,136)"/>
<path d="M0 0 C20.46 0 40.92 0 62 0 C62.99 7.92 62.99 7.92 64 16 C54.99770099 17.12528738 54.99770099 17.12528738 50.52124023 17.12939453 C49.52337997 17.13254669 48.52551971 17.13569885 47.49742126 17.13894653 C46.44510818 17.1369223 45.3927951 17.13489807 44.30859375 17.1328125 C43.20451675 17.13376923 42.10043976 17.13472595 40.96290588 17.13571167 C38.63908837 17.13638939 36.31526891 17.13456367 33.99145508 17.13037109 C30.44543185 17.12501199 26.89953498 17.13033262 23.35351562 17.13671875 C21.08854139 17.136058 18.82356723 17.13477689 16.55859375 17.1328125 C15.50425644 17.13483673 14.44991913 17.13686096 13.3636322 17.13894653 C8.13373271 17.12237335 3.15275494 16.91216036 -2 16 C-1.85890014 13.89551062 -1.71195825 11.7914123 -1.5625 9.6875 C-1.48128906 8.51574219 -1.40007812 7.34398437 -1.31640625 6.13671875 C-1 3 -1 3 0 0 Z " fill="#F7A468" transform="translate(265,207)"/>
<path d="M0 0 C2.1117156 4.16048824 3.82434519 8.50966624 5.625 12.8125 C6.140625 14.01455078 6.65625 15.21660156 7.1875 16.45507812 C7.91839844 18.18854492 7.91839844 18.18854492 8.6640625 19.95703125 C9.11217285 21.01897705 9.5602832 22.08092285 10.02197266 23.17504883 C11 26 11 26 11 30 C7.27352875 31.48602164 3.54338652 32.96260245 -0.1875 34.4375 C-1.24259766 34.85837891 -2.29769531 35.27925781 -3.38476562 35.71289062 C-4.40634766 36.11572266 -5.42792969 36.51855469 -6.48046875 36.93359375 C-7.41785889 37.30540771 -8.35524902 37.67722168 -9.32104492 38.06030273 C-11.87642773 38.95665454 -14.33480176 39.54135764 -17 40 C-20.28933694 33.83059845 -23.15799874 27.50009188 -25.875 21.0625 C-26.19734619 20.31685791 -26.51969238 19.57121582 -26.85180664 18.80297852 C-29.11708944 13.35126831 -29.11708944 13.35126831 -28 10 C-25.53149414 8.63378906 -25.53149414 8.63378906 -22.28515625 7.265625 C-21.12435547 6.77449219 -19.96355469 6.28335938 -18.76757812 5.77734375 C-17.85600952 5.40198486 -17.85600952 5.40198486 -16.92602539 5.01904297 C-15.06746566 4.25204924 -13.21819052 3.46538484 -11.36914062 2.67578125 C-2.26390724 -1.13195362 -2.26390724 -1.13195362 0 0 Z " fill="#FEA913" transform="translate(162,213)"/>
<path d="M0 0 C13.2 0 26.4 0 40 0 C40 8.91 40 17.82 40 27 C38.02 26.34 36.04 25.68 34 25 C31.29594009 24.77324372 28.68161819 24.62977765 25.9765625 24.5859375 C25.23038666 24.56657135 24.48421082 24.5472052 23.71542358 24.5272522 C21.35206223 24.46787935 18.98865103 24.4212422 16.625 24.375 C15.01430268 24.33678116 13.40362494 24.2977272 11.79296875 24.2578125 C7.86208603 24.16065371 3.93139033 24.08075288 0 24 C0 16.08 0 8.16 0 0 Z " fill="#FDBF92" transform="translate(328,104)"/>
<path d="M0 0 C0.67449966 2.39387157 1.33976641 4.78969221 2 7.1875 C2.28617188 8.19780273 2.28617188 8.19780273 2.578125 9.22851562 C3.62288591 13.0530868 4 15.96876157 4 20 C-19.1 20 -42.2 20 -66 20 C-63.76245918 17.76245918 -62.43486358 17.34143288 -59.44921875 16.4140625 C-58.53035889 16.12539307 -57.61149902 15.83672363 -56.66479492 15.53930664 C-55.6822876 15.23758545 -54.69978027 14.93586426 -53.6875 14.625 C-52.67856689 14.30974365 -51.66963379 13.9944873 -50.63012695 13.66967773 C-47.75543789 12.7730854 -44.87841222 11.88455657 -42 11 C-40.8553125 10.64808594 -39.710625 10.29617188 -38.53125 9.93359375 C-36.61051139 9.34523563 -34.68860035 8.76069342 -32.765625 8.1796875 C-29.43015112 7.13475688 -26.11378824 6.04734562 -22.796875 4.9453125 C-21.67192627 4.575271 -20.54697754 4.20522949 -19.38793945 3.82397461 C-17.11542832 3.0754754 -14.84563164 2.31867596 -12.57885742 1.55297852 C-11.53060791 1.20936279 -10.4823584 0.86574707 -9.40234375 0.51171875 C-8.45866943 0.19678467 -7.51499512 -0.11814941 -6.54272461 -0.44262695 C-3.90825314 -1.02011119 -2.50951867 -0.89744132 0 0 Z " fill="#3D4A5D" transform="translate(268,468)"/>
<path d="M0 0 C1.0715332 2.1862793 1.0715332 2.1862793 2.05078125 5.07421875 C2.41679443 6.12859131 2.78280762 7.18296387 3.15991211 8.26928711 C3.54026611 9.39729736 3.92062012 10.52530762 4.3125 11.6875 C5.10889165 13.97503557 5.90835715 16.26150338 6.7109375 18.546875 C7.09991211 19.65611328 7.48888672 20.76535156 7.88964844 21.90820312 C11.19868013 32.20807186 11.19868013 32.20807186 17 41 C14.08483516 41.53084792 11.16839443 42.04999055 8.25 42.5625 C7.0125 42.78969727 7.0125 42.78969727 5.75 43.02148438 C4.95078125 43.16005859 4.1515625 43.29863281 3.328125 43.44140625 C2.5949707 43.57232666 1.86181641 43.70324707 1.10644531 43.83813477 C-1.16233287 44.01247412 -2.83778579 43.66874807 -5 43 C-4.01 43 -3.02 43 -2 43 C-2.31751221 42.19369141 -2.63502441 41.38738281 -2.9621582 40.55664062 C-4.15358919 37.53014951 -5.34443943 34.50343068 -6.53491211 31.4765625 C-7.04770468 30.17308726 -7.56072049 28.86969982 -8.07397461 27.56640625 C-9.72248174 23.38012912 -11.36283927 19.1907314 -13 15 C-13.33821777 14.14664062 -13.67643555 13.29328125 -14.02490234 12.4140625 C-15.17883816 9.45086929 -16 7.21119761 -16 4 C-13.90049414 3.13444052 -11.7952093 2.28288723 -9.6875 1.4375 C-8.51574219 0.96183594 -7.34398437 0.48617188 -6.13671875 -0.00390625 C-3 -1 -3 -1 0 0 Z " fill="#4C5D71" transform="translate(158,328)"/>
<path d="M0 0 C5.53588533 -0.02464775 11.071739 -0.04283496 16.60766602 -0.05493164 C18.4924373 -0.05997244 20.37720465 -0.06680498 22.26196289 -0.07543945 C24.96501636 -0.08751617 27.66801831 -0.09323068 30.37109375 -0.09765625 C31.21900986 -0.10281754 32.06692596 -0.10797882 32.9405365 -0.11329651 C34.96071068 -0.11349195 36.98077934 -0.06206211 39 0 C40 1 40 1 40.1328125 4.125 C40.13023437 5.40375 40.12765625 6.6825 40.125 8 C40.12886719 9.918125 40.12886719 9.918125 40.1328125 11.875 C40 15 40 15 39 16 C36.20006403 16.10103255 33.42531356 16.13970088 30.625 16.1328125 C29.78533691 16.13376923 28.94567383 16.13472595 28.08056641 16.13571167 C26.30175705 16.13639348 24.52294523 16.13453917 22.74414062 16.13037109 C20.01166224 16.12502283 17.27934824 16.13031605 14.546875 16.13671875 C12.8229163 16.13605797 11.09895771 16.13477681 9.375 16.1328125 C8.55209473 16.13483673 7.72918945 16.13686096 6.88134766 16.13894653 C1.11495054 16.11495054 1.11495054 16.11495054 0 15 C-0.07313567 12.46950598 -0.09247527 9.96695163 -0.0625 7.4375 C-0.05798828 6.72658203 -0.05347656 6.01566406 -0.04882812 5.28320312 C-0.03700864 3.52209987 -0.01907263 1.76103964 0 0 Z " fill="#DFDFDD" transform="translate(320,144)"/>
<path d="M0 0 C5.53588533 -0.02464775 11.071739 -0.04283496 16.60766602 -0.05493164 C18.4924373 -0.05997244 20.37720465 -0.06680498 22.26196289 -0.07543945 C24.96501636 -0.08751617 27.66801831 -0.09323068 30.37109375 -0.09765625 C31.21900986 -0.10281754 32.06692596 -0.10797882 32.9405365 -0.11329651 C34.96071068 -0.11349195 36.98077934 -0.06206211 39 0 C40 1 40 1 40.1328125 4.125 C40.13023437 5.40375 40.12765625 6.6825 40.125 8 C40.12886719 9.918125 40.12886719 9.918125 40.1328125 11.875 C40 15 40 15 39 16 C36.20006403 16.10103255 33.42531356 16.13970088 30.625 16.1328125 C29.78533691 16.13376923 28.94567383 16.13472595 28.08056641 16.13571167 C26.30175705 16.13639348 24.52294523 16.13453917 22.74414062 16.13037109 C20.01166224 16.12502283 17.27934824 16.13031605 14.546875 16.13671875 C12.8229163 16.13605797 11.09895771 16.13477681 9.375 16.1328125 C8.55209473 16.13483673 7.72918945 16.13686096 6.88134766 16.13894653 C1.11495054 16.11495054 1.11495054 16.11495054 0 15 C-0.07313567 12.46950598 -0.09247527 9.96695163 -0.0625 7.4375 C-0.05798828 6.72658203 -0.05347656 6.01566406 -0.04882812 5.28320312 C-0.03700864 3.52209987 -0.01907263 1.76103964 0 0 Z " fill="#DFDFDD" transform="translate(232,144)"/>
<path d="M0 0 C2.475 7.425 2.475 7.425 5 15 C2.710625 15.9590625 2.710625 15.9590625 0.375 16.9375 C-0.48351562 17.29714844 -1.34203125 17.65679687 -2.2265625 18.02734375 C-5.14561128 19.05106649 -7.94129433 19.57393396 -11 20 C-11.67413211 18.08594633 -12.3390332 16.16863974 -13 14.25 C-13.37125 13.18265625 -13.7425 12.1153125 -14.125 11.015625 C-15 8 -15 8 -15 4 C-13.06441401 3.32779649 -11.12645628 2.66241923 -9.1875 2 C-8.10855469 1.62875 -7.02960938 1.2575 -5.91796875 0.875 C-3 0 -3 0 0 0 Z " fill="#4B5C71" transform="translate(147,297)"/>
<path d="M0 0 C4.29 0 8.58 0 13 0 C13.03738281 1.23234375 13.07476562 2.4646875 13.11328125 3.734375 C13.4366434 12.37600997 13.89863245 20.4249415 16.4765625 28.75 C17 31 17 31 16 34 C9.6031241 22.90492004 3.85716276 12.23651634 0 0 Z " fill="#7A452A" transform="translate(211,184)"/>
<path d="M0 0 C1.32 0 2.64 0 4 0 C3.01 3.96 2.02 7.92 1 12 C0.67 12 0.34 12 0 12 C0 8.04 0 4.08 0 0 Z " fill="#743D21" transform="translate(368,184)"/>
</svg>
