<?xml version="1.0" encoding="UTF-8"?>
<svg version="1.1" xmlns="http://www.w3.org/2000/svg" width="800" height="800">
<path d="M0 0 C0.92522461 0.19867676 1.85044922 0.39735352 2.80371094 0.60205078 C28.65348019 6.33642133 56.42979372 17.2872071 71.5078125 40.4453125 C79.48901403 54.10946382 81.42493747 68.52732695 83 84 C83.64582031 84.09410156 84.29164063 84.18820313 84.95703125 84.28515625 C104.66552685 88.91500823 123.82573945 100.94118596 139 114 C139.69351562 114.58007812 140.38703125 115.16015625 141.1015625 115.7578125 C150.02064132 123.86236357 157.46916414 136.02900576 158.33984375 148.09375 C159.08368039 163.93408938 154.2644559 174.89044994 144 187 C143.45730469 187.64453125 142.91460938 188.2890625 142.35546875 188.953125 C133.80688241 198.21589703 121.93046058 204.95421411 111 211 C111.15597656 211.55945313 111.31195312 212.11890625 111.47265625 212.6953125 C114.82201302 226.49200066 112.00461677 239.02911298 105.25 251.25 C101.69605569 256.90032159 97.28317261 261.11217575 91.5 264.4375 C87.93863252 265.23880768 84.64745946 265.12364269 81 265 C80.89945313 266.25425781 80.79890625 267.50851562 80.6953125 268.80078125 C78.55012303 287.92436055 70.64630132 307.43640353 57 321 C55.97249433 322.06108428 54.94653775 323.12367012 53.921875 324.1875 C47.32824143 330.9746574 40.48934817 337.19781268 33 343 C32.44183594 343.43505859 31.88367188 343.87011719 31.30859375 344.31835938 C21.14820847 352.23452769 21.14820847 352.23452769 17 355 C16.49039309 357.51385259 16.49039309 357.51385259 16.48828125 360.4453125 C16.45283203 361.52167969 16.41738281 362.59804688 16.38085938 363.70703125 C16.35830078 364.83496094 16.33574219 365.96289062 16.3125 367.125 C16.27833984 368.26066406 16.24417969 369.39632813 16.20898438 370.56640625 C16.12630498 373.37750579 16.05722063 376.18828553 16 379 C17.2812285 378.0743639 18.55764144 377.14206027 19.83203125 376.20703125 C20.89901245 375.42936401 20.89901245 375.42936401 21.98754883 374.63598633 C23.87589249 373.10089099 25.22674817 371.61938714 26.6875 369.6875 C29.38825864 366.5487805 30.02835649 366.49099988 34 366 C43.67597166 365.37804608 51.87145198 364.96480796 59.6640625 371.3671875 C65.50710566 377.15266373 67.68898367 385.49527955 68.2421875 393.5078125 C68.24891098 396.35184438 68.18405459 399.16249167 68 402 C68.89203125 401.65066406 69.7840625 401.30132812 70.703125 400.94140625 C71.87359375 400.48636719 73.0440625 400.03132813 74.25 399.5625 C75.41015625 399.11003906 76.5703125 398.65757812 77.765625 398.19140625 C83.06600937 396.23896998 87.73534035 395.78876055 93.375 395.75 C94.48875 395.7190625 94.48875 395.7190625 95.625 395.6875 C101.33633067 395.64713724 105.34769436 396.7614087 109.828125 400.54296875 C115.07835637 406.61535174 116.3220672 411.65923411 115.75 419.625 C115.34816854 423.65513318 114.36385959 427.18790066 113 431 C114.08796875 431.14695312 115.1759375 431.29390625 116.296875 431.4453125 C128.51164827 433.24762927 139.81522568 436.04554474 148 446 C149 449 149 449 148.640625 451.34765625 C148.17487559 454.58461466 148.16355431 456.82150639 149 460 C152.35023175 463.51986374 156.15430387 466.08732635 160.18652344 468.77050781 C193.32376193 491.23673467 198.2368937 540.5430699 206 577 C206.28994843 578.36013214 206.28994843 578.36013214 206.58575439 579.7477417 C207.9283577 586.05749153 209.25134007 592.37114766 210.5625 598.6875 C210.73861816 599.53050659 210.91473633 600.37351318 211.09619141 601.24206543 C211.59182078 603.62251388 212.08035384 606.0042987 212.56640625 608.38671875 C212.71280045 609.08695663 212.85919464 609.78719452 213.01002502 610.50865173 C213.74411522 614.15385617 214 617.23249588 214 621 C47.35 621 -119.3 621 -291 621 C-289.87444304 610.86998736 -289.87444304 610.86998736 -289.01953125 606.68432617 C-288.82808533 605.73881393 -288.6366394 604.7933017 -288.43939209 603.81913757 C-288.2325177 602.82050186 -288.02564331 601.82186615 -287.8125 600.79296875 C-287.59418518 599.72629471 -287.37587036 598.65962067 -287.15093994 597.56062317 C-286.43995881 594.10164328 -285.72112735 590.64437814 -285 587.1875 C-284.75423218 586.00615479 -284.50846436 584.82480957 -284.25524902 583.60766602 C-264.1287758 487.14559136 -264.1287758 487.14559136 -226.25 460.8125 C-225.21286865 460.08969849 -225.21286865 460.08969849 -224.15478516 459.35229492 C-219.24578248 456 -219.24578248 456 -217 456 C-217.061875 454.9275 -217.12375 453.855 -217.1875 452.75 C-217.13849238 443.52023221 -214.70274007 433.63702693 -208 427 C-197.29505102 419.90911499 -186.51091531 418.73479874 -174 418 C-174.04640625 417.20335937 -174.0928125 416.40671875 -174.140625 415.5859375 C-174.50492726 404.89106389 -174.50492726 404.89106389 -170 400 C-166.35433792 397.56955861 -163.64363257 397.73689308 -159.4375 397.8125 C-158.40979492 397.8134668 -158.40979492 397.8134668 -157.36132812 397.81445312 C-152.28135927 397.85932037 -152.28135927 397.85932037 -150 399 C-150.0825 397.906875 -150.165 396.81375 -150.25 395.6875 C-150.22207226 387.81187854 -147.11223243 380.1501927 -141.7109375 374.43359375 C-134.16447437 368.11041574 -125.51375673 367.22562445 -116 368 C-106.94087564 369.74862168 -101.02561611 373.18606947 -94 379 C-92.14990151 365.6714747 -92.14990151 365.6714747 -95.09863281 353.02685547 C-97.97297458 349.90451956 -101.52939807 347.93311619 -105.25585938 345.97265625 C-107.94671113 344.47204687 -110.21129618 342.54246111 -112.5625 340.5625 C-113.45066406 339.82902344 -114.33882812 339.09554688 -115.25390625 338.33984375 C-120.30580486 334.03530994 -125.17546712 329.55510273 -130 325 C-130.4959668 324.53803223 -130.99193359 324.07606445 -131.50292969 323.60009766 C-132.97246994 322.22547525 -134.4239019 320.83157663 -135.875 319.4375 C-137.13957031 318.22900391 -137.13957031 318.22900391 -138.4296875 316.99609375 C-145.24920044 309.04690465 -148.61700581 300.26521858 -151.75 290.375 C-152.13542969 289.199375 -152.52085937 288.02375 -152.91796875 286.8125 C-158 271.16195394 -158 271.16195394 -158 265 C-158.8353125 264.99613281 -158.8353125 264.99613281 -159.6875 264.9921875 C-166.33278001 264.65543345 -170.31906072 262.70959809 -175 258 C-182.27110903 249.37854215 -187.16769088 239.33361384 -187.09765625 227.91796875 C-187.09282227 226.52094727 -187.09282227 226.52094727 -187.08789062 225.09570312 C-187.07532227 223.65614258 -187.07532227 223.65614258 -187.0625 222.1875 C-187.05798828 221.20845703 -187.05347656 220.22941406 -187.04882812 219.22070312 C-187.03708684 216.81373889 -187.02066419 214.40690143 -187 212 C-188.32451172 211.27296875 -188.32451172 211.27296875 -189.67578125 210.53125 C-208.9127569 199.84434071 -227.85512569 186.50117391 -235.08203125 164.7421875 C-237.96213285 153.00117757 -236.5405013 140.8576551 -230.4921875 130.390625 C-228.77260356 127.81524812 -226.94747881 125.4073002 -225 123 C-224.3296875 122.16597656 -223.659375 121.33195312 -222.96875 120.47265625 C-208.42800783 103.37674743 -184.76068908 90.35197572 -163.29394531 84.22802734 C-160.76674429 83.20678026 -160.76674429 83.20678026 -160.14453125 80.57666016 C-160.03496094 79.57425293 -159.92539062 78.5718457 -159.8125 77.5390625 C-159.67070312 76.42660156 -159.52890625 75.31414062 -159.3828125 74.16796875 C-159.25648438 72.99878906 -159.13015625 71.82960938 -159 70.625 C-157.4517917 56.77011552 -153.61431991 46.03533792 -145 35 C-144.50113281 34.32453125 -144.00226563 33.6490625 -143.48828125 32.953125 C-124.92278671 9.57089006 -89.7622977 1.13798245 -61.828125 -2.62109375 C-41.71193259 -4.61599468 -19.7486168 -4.30815572 0 0 Z " fill="#FEDDCB" transform="translate(445,69)"/>
<path d="M0 0 C7.10446198 5.78753732 9.82847817 12.31698416 11.6015625 21.3046875 C11.87983184 25.33510467 11.86296381 29.27475068 11.6015625 33.3046875 C12.49359375 32.95535156 13.385625 32.60601562 14.3046875 32.24609375 C15.47515625 31.79105469 16.645625 31.33601563 17.8515625 30.8671875 C19.01171875 30.41472656 20.171875 29.96226562 21.3671875 29.49609375 C26.66757187 27.54365748 31.33690285 27.09344805 36.9765625 27.0546875 C37.7190625 27.0340625 38.4615625 27.0134375 39.2265625 26.9921875 C44.93789317 26.95182474 48.94925686 28.0660962 53.4296875 31.84765625 C58.67991887 37.92003924 59.9236297 42.96392161 59.3515625 50.9296875 C58.94973104 54.95982068 57.96542209 58.49258816 56.6015625 62.3046875 C57.68953125 62.45164062 58.7775 62.59859375 59.8984375 62.75 C72.11321077 64.55231677 83.41678818 67.35023224 91.6015625 77.3046875 C92.6015625 80.3046875 92.6015625 80.3046875 92.2421875 82.65234375 C91.77643809 85.88930216 91.76511681 88.12619389 92.6015625 91.3046875 C95.95179425 94.82455124 99.75586637 97.39201385 103.78808594 100.07519531 C136.92532443 122.54142217 141.8384562 171.8477574 149.6015625 208.3046875 C149.89151093 209.66481964 149.89151093 209.66481964 150.18731689 211.0524292 C151.5299202 217.36217903 152.85290257 223.67583516 154.1640625 229.9921875 C154.34018066 230.83519409 154.51629883 231.67820068 154.69775391 232.54675293 C155.19338328 234.92720138 155.68191634 237.3089862 156.16796875 239.69140625 C156.31436295 240.39164413 156.46075714 241.09188202 156.61158752 241.81333923 C157.34567772 245.45854367 157.6015625 248.53718338 157.6015625 252.3046875 C-9.0484375 252.3046875 -175.6984375 252.3046875 -347.3984375 252.3046875 C-346.27288054 242.17467486 -346.27288054 242.17467486 -345.41796875 237.98901367 C-345.22652283 237.04350143 -345.0350769 236.0979892 -344.83782959 235.12382507 C-344.6309552 234.12518936 -344.42408081 233.12655365 -344.2109375 232.09765625 C-343.99262268 231.03098221 -343.77430786 229.96430817 -343.54937744 228.86531067 C-342.83839631 225.40633078 -342.11956485 221.94906564 -341.3984375 218.4921875 C-341.15266968 217.31084229 -340.90690186 216.12949707 -340.65368652 214.91235352 C-320.5272133 118.45027886 -320.5272133 118.45027886 -282.6484375 92.1171875 C-281.9570166 91.63531982 -281.2655957 91.15345215 -280.55322266 90.65698242 C-275.64421998 87.3046875 -275.64421998 87.3046875 -273.3984375 87.3046875 C-273.49125 85.6959375 -273.49125 85.6959375 -273.5859375 84.0546875 C-273.53692988 74.82491971 -271.10117757 64.94171443 -264.3984375 58.3046875 C-253.69348852 51.21380249 -242.90935281 50.03948624 -230.3984375 49.3046875 C-230.44484375 48.50804687 -230.49125 47.71140625 -230.5390625 46.890625 C-230.90336476 36.19575139 -230.90336476 36.19575139 -226.3984375 31.3046875 C-222.75277542 28.87424611 -220.04207007 29.04158058 -215.8359375 29.1171875 C-214.80823242 29.1181543 -214.80823242 29.1181543 -213.75976562 29.11914062 C-208.67979677 29.16400787 -208.67979677 29.16400787 -206.3984375 30.3046875 C-206.4809375 29.2115625 -206.5634375 28.1184375 -206.6484375 26.9921875 C-206.62050976 19.11656604 -203.51066993 11.4548802 -198.109375 5.73828125 C-190.55244487 -0.59366706 -181.92172406 -1.45007181 -172.3984375 -0.6953125 C-163.54312196 0.86120377 -157.69874296 4.1745559 -151 10.0625 C-132.40087442 26.092377 -107.37284192 26.6009597 -84.12304688 25.1640625 C-71.24423418 24.03411682 -59.22114266 19.95322851 -47.55126953 14.59106445 C-42.57470743 12.3046875 -42.57470743 12.3046875 -40.3984375 12.3046875 C-40.3984375 11.6446875 -40.3984375 10.9846875 -40.3984375 10.3046875 C-38.82421875 9.0078125 -38.82421875 9.0078125 -36.7109375 7.5546875 C-33.93628862 5.5665148 -31.76173465 3.72001063 -29.7109375 0.9921875 C-24.10970666 -5.51735105 -6.89670089 -4.40538163 0 0 Z " fill="#85BBEA" transform="translate(501.3984375,437.6953125)"/>
<path d="M0 0 C0.01458252 0.63164063 0.02916504 1.26328125 0.04418945 1.9140625 C1.41538456 55.71530079 11.59538934 115.3506402 51 155 C52.94123743 156.92291237 52.94123743 156.92291237 55 158 C57.09568678 157.60741708 57.09568678 157.60741708 59 157 C58.99777939 156.36408432 58.99555878 155.72816864 58.99327087 155.07298279 C58.97110002 148.43790246 58.95604419 141.8028327 58.94506836 135.16772461 C58.94004821 132.6934364 58.93323074 130.21915115 58.92456055 127.74487305 C58.91239344 124.18277252 58.90674841 120.62071131 58.90234375 117.05859375 C58.89718246 115.95728622 58.89202118 114.8559787 58.88670349 113.72129822 C58.886315 108.3692245 59.05200906 103.27135447 60 98 C61.32 98 62.64 98 64 98 C64.2266333 98.61520508 64.4532666 99.23041016 64.68676758 99.86425781 C65.72183908 102.66209064 66.76704976 105.45602965 67.8125 108.25 C68.16892578 109.21808594 68.52535156 110.18617188 68.89257812 111.18359375 C69.24384766 112.11816406 69.59511719 113.05273438 69.95703125 114.015625 C70.27647705 114.87446289 70.59592285 115.73330078 70.92504883 116.61816406 C72.03584313 119.07941985 73.21419186 120.9765607 75 123 C77.45587964 123.83356413 77.45587964 123.83356413 80 123 C83.15017164 118.89242325 85.00642341 114.8110312 86.6875 109.9375 C87.10386719 108.75027344 87.52023437 107.56304688 87.94921875 106.33984375 C89.86005801 100.26635837 90.18272087 94.82756793 90.1875 88.5 C90.19974609 87.67757812 90.21199219 86.85515625 90.22460938 86.0078125 C90.25649452 72.19091453 86.7130008 58.86076256 83.5625 45.5 C83.16296027 43.79046997 82.7638694 42.08083497 82.36523438 40.37109375 C81.59886429 37.08668445 80.83011449 33.80284905 80.05908203 30.51953125 C78.68957632 24.68347983 77.342291 18.8423695 76 13 C79.46858834 14.66138228 82.22876517 16.66998583 85.25 19.0625 C116.7766616 43.25795388 157.65567908 51.85082101 196.6640625 47.3046875 C220.87291572 43.98820387 245.35283943 36.63137679 266.91796875 25.03125 C269 24 269 24 271 24 C270.86948242 24.62116699 270.73896484 25.24233398 270.60449219 25.88232422 C267.20298927 42.18392272 264.28303629 58.50348686 262 75 C261.87995605 75.85255371 261.75991211 76.70510742 261.63623047 77.58349609 C260.27996298 87.50587627 259.78820306 97.36151922 259.6875 107.375 C259.66977539 108.45209229 259.65205078 109.52918457 259.63378906 110.63891602 C259.56617685 117.82663364 259.56617685 117.82663364 263 124 C266.18140975 124 268.3153096 123.57507988 270.78125 121.50390625 C276.42021684 115.35792704 279.90300036 108.35050162 282.5625 100.5 C284 97 284 97 286.1875 95.5 C286.785625 95.335 287.38375 95.17 288 95 C292.12607449 98.739255 294.58884841 102.37899674 297 107.375 C297.3417627 108.07254395 297.68352539 108.77008789 298.03564453 109.48876953 C304.41913111 122.8612551 307.89059148 136.43278064 308.75390625 151.21484375 C308.89902604 154.08291325 308.89902604 154.08291325 310 157 C312.37897003 157.04510361 312.37897003 157.04510361 315 156 C322.29276279 145.48984186 323.97122476 133.14589929 325.24121094 120.69482422 C327.97145851 93.95202629 333.57845367 68.24954349 343 43 C343.39203613 41.93628174 343.39203613 41.93628174 343.79199219 40.85107422 C346.86667504 32.65944588 350.96341811 25.51653558 355.80859375 18.2890625 C358.69849708 13.95163183 361.36035513 9.49257205 364 5 C369.92941462 6.00196127 374.36173112 10.43300642 379 14 C380.03640625 14.78117188 381.0728125 15.56234375 382.140625 16.3671875 C411.08957681 39.13357422 415.7614426 87.00644499 423 121 C423.28994843 122.36013214 423.28994843 122.36013214 423.58575439 123.7477417 C424.9283577 130.05749153 426.25134007 136.37114766 427.5625 142.6875 C427.73861816 143.53050659 427.91473633 144.37351318 428.09619141 145.24206543 C428.59182078 147.62251388 429.08035384 150.0042987 429.56640625 152.38671875 C429.71280045 153.08695663 429.85919464 153.78719452 430.01002502 154.50865173 C430.74411522 158.15385617 431 161.23249588 431 165 C264.35 165 97.7 165 -74 165 C-72.87444304 154.86998736 -72.87444304 154.86998736 -72.01953125 150.68432617 C-71.82808533 149.73881393 -71.6366394 148.7933017 -71.43939209 147.81913757 C-71.2325177 146.82050186 -71.02564331 145.82186615 -70.8125 144.79296875 C-70.59418518 143.72629471 -70.37587036 142.65962067 -70.15093994 141.56062317 C-69.43995881 138.10164328 -68.72112735 134.64437814 -68 131.1875 C-67.75423218 130.00615479 -67.50846436 128.82480957 -67.25524902 127.60766602 C-47.1287758 31.14559136 -47.1287758 31.14559136 -9.25 4.8125 C-8.5585791 4.33063232 -7.8671582 3.84876465 -7.15478516 3.35229492 C-2.24578248 0 -2.24578248 0 0 0 Z " fill="#C3523E" transform="translate(228,525)"/>
<path d="M0 0 C0.92522461 0.19867676 1.85044922 0.39735352 2.80371094 0.60205078 C28.65348019 6.33642133 56.42979372 17.2872071 71.5078125 40.4453125 C79.48901403 54.10946382 81.42493747 68.52732695 83 84 C83.64582031 84.09410156 84.29164063 84.18820313 84.95703125 84.28515625 C104.66552685 88.91500823 123.82573945 100.94118596 139 114 C139.69351562 114.58007812 140.38703125 115.16015625 141.1015625 115.7578125 C150.02064132 123.86236357 157.46916414 136.02900576 158.33984375 148.09375 C159.08368039 163.93408938 154.2644559 174.89044994 144 187 C143.45730469 187.64453125 142.91460938 188.2890625 142.35546875 188.953125 C133.99766672 198.00917379 121.93900823 205.45707972 111 211 C110.34 211 109.68 211 109 211 C107.64613064 209.34997172 106.31321858 207.6825613 105 206 C102.56045342 204.78022671 100.84694151 204.79846187 98.125 204.75 C97.26132812 204.72421875 96.39765625 204.6984375 95.5078125 204.671875 C92.53472593 205.06087698 91.28076875 206.12404302 89 208 C88.34 208 87.68 208 87 208 C86.67 207.01 86.34 206.02 86 205 C85.34 206.32 84.68 207.64 84 209 C81.625 208.75 81.625 208.75 79 208 C76.72271551 204.70817004 76.76027251 201.74916093 76.76171875 197.828125 C76.74955322 196.61447266 76.7373877 195.40082031 76.72485352 194.15039062 C76.70636353 192.21969727 76.70636353 192.21969727 76.6875 190.25 C76.40984768 178.92233939 75.63736053 169.44157313 71 159 C70.47889648 157.77941895 70.47889648 157.77941895 69.94726562 156.53417969 C64.84964774 144.7161878 59.02648861 134.06366847 51 124 C50.37222656 123.17886719 49.74445313 122.35773438 49.09765625 121.51171875 C44.47380254 115.77646256 39.23337502 112.49510581 32 111 C-25.23310915 108.04625727 -86.06050277 122.58409377 -129.3125 161.5 C-144.25920929 175.39218686 -152.855098 191.39775385 -153.65625 211.8671875 C-153.82640625 213.41792969 -153.82640625 213.41792969 -154 215 C-154.66 215.33 -155.32 215.66 -156 216 C-156.44730469 215.45730469 -156.89460938 214.91460937 -157.35546875 214.35546875 C-162.67744277 207.67496386 -162.67744277 207.67496386 -170.35546875 204.69140625 C-174.66862048 204.48116399 -177.24760303 204.54542683 -181 206.8125 C-183.13146611 209.03247054 -183.13146611 209.03247054 -185 212 C-202.77487849 206.91753861 -221.25949945 190.98958692 -230.58984375 175.33203125 C-236.58096277 163.85339451 -238.19882071 151.10354468 -234.4375 138.625 C-232.16089289 132.7344781 -228.95740169 127.8917882 -225 123 C-224.3296875 122.16597656 -223.659375 121.33195312 -222.96875 120.47265625 C-208.42800783 103.37674743 -184.76068908 90.35197572 -163.29394531 84.22802734 C-160.76674429 83.20678026 -160.76674429 83.20678026 -160.14453125 80.57666016 C-160.03496094 79.57425293 -159.92539062 78.5718457 -159.8125 77.5390625 C-159.67070312 76.42660156 -159.52890625 75.31414062 -159.3828125 74.16796875 C-159.25648438 72.99878906 -159.13015625 71.82960938 -159 70.625 C-157.4517917 56.77011552 -153.61431991 46.03533792 -145 35 C-144.50113281 34.32453125 -144.00226563 33.6490625 -143.48828125 32.953125 C-124.92278671 9.57089006 -89.7622977 1.13798245 -61.828125 -2.62109375 C-41.71193259 -4.61599468 -19.7486168 -4.30815572 0 0 Z " fill="#86BBEA" transform="translate(445,69)"/>
<path d="M0 0 C0.93504364 -0.00100708 1.87008728 -0.00201416 2.83346558 -0.00305176 C26.21492914 0.01384649 49.92891089 0.87610765 72.5625 7.25 C73.56458496 7.51635254 73.56458496 7.51635254 74.58691406 7.78808594 C86.84772727 11.07129177 105.18468621 16.4996213 112.6875 27.3125 C113.34303216 28.61002027 113.96605177 29.92428104 114.5625 31.25 C115.05363281 32.31927734 115.05363281 32.31927734 115.5546875 33.41015625 C123.46804135 52.76413407 124.67905436 75.65143155 124.875 96.3125 C124.90158691 98.00753662 124.90158691 98.00753662 124.92871094 99.73681641 C124.92248967 106.74092161 124.0099596 112.67806629 121.5625 119.25 C119.0875 119.745 119.0875 119.745 116.5625 120.25 C113.82254137 116.34449607 113.20194975 113.7240483 113.2265625 108.98046875 C113.21761963 107.77003906 113.20867676 106.55960937 113.19946289 105.3125 C113.19551514 104.03375 113.19156738 102.755 113.1875 101.4375 C112.94780367 90.10993775 112.20033167 80.69263394 107.5625 70.25 C107.21509766 69.4362793 106.86769531 68.62255859 106.50976562 67.78417969 C101.41214774 55.9661878 95.58898861 45.31366847 87.5625 35.25 C86.62083984 34.01830078 86.62083984 34.01830078 85.66015625 32.76171875 C81.03630254 27.02646256 75.79587502 23.74510581 68.5625 22.25 C11.32939085 19.29625727 -49.49800277 33.83409377 -92.75 72.75 C-107.69670929 86.64218686 -116.292598 102.64775385 -117.09375 123.1171875 C-117.2071875 124.15101563 -117.320625 125.18484375 -117.4375 126.25 C-118.4275 126.745 -118.4275 126.745 -119.4375 127.25 C-119.93121094 126.68410156 -120.42492187 126.11820312 -120.93359375 125.53515625 C-121.89458984 124.43494141 -121.89458984 124.43494141 -122.875 123.3125 C-123.83212891 122.21615234 -123.83212891 122.21615234 -124.80859375 121.09765625 C-125.66291459 120.12860647 -126.52401175 119.16348825 -127.4375 118.25 C-127.56439628 115.71611201 -127.62585187 113.21119585 -127.640625 110.67578125 C-127.64754868 109.89253479 -127.65447235 109.10928833 -127.66160583 108.30230713 C-127.67910666 105.72232191 -127.68521822 103.14254215 -127.6875 100.5625 C-127.68883942 99.68463837 -127.69017883 98.80677673 -127.69155884 97.90231323 C-127.68614378 81.51689747 -126.63116105 65.50137227 -124.4375 49.25 C-124.32535156 48.36199707 -124.21320313 47.47399414 -124.09765625 46.55908203 C-122.71073676 35.90676982 -120.254627 29.00507024 -111.8125 22.125 C-90.40288386 7.24713115 -60.90806045 3.130753 -35.4375 1.25 C-33.86560913 1.12189941 -33.86560913 1.12189941 -32.26196289 0.99121094 C-21.50641205 0.17848193 -10.78258565 0.00812023 0 0 Z " fill="#802E06" transform="translate(408.4375,157.75)"/>
<path d="M0 0 C0.92522461 0.19867676 1.85044922 0.39735352 2.80371094 0.60205078 C28.65348019 6.33642133 56.42979372 17.2872071 71.5078125 40.4453125 C79.48901403 54.10946382 81.42493747 68.52732695 83 84 C77.49534399 82.50471929 71.99322757 81.00163956 66.5 79.46484375 C65.5925 79.21283203 64.685 78.96082031 63.75 78.70117188 C61.91565598 78.19177663 60.08231661 77.67874978 58.25 77.16210938 C57.3425 76.91138672 56.435 76.66066406 55.5 76.40234375 C54.59894531 76.15210449 53.69789063 75.90186523 52.76953125 75.64404297 C49.9935829 74.93917777 49.9935829 74.93917777 47.07421875 74.68798828 C39.94346654 73.92449604 39.94346654 73.92449604 37.17871094 71.21533203 C35.60274418 68.8779374 34.29061229 66.5055048 33 64 C32.05460225 62.40814578 31.101432 60.82088249 30.140625 59.23828125 C29.17691195 57.59645475 28.21337484 55.95452497 27.25 54.3125 C14.27409874 32.49791216 -0.92029707 9.86022821 -25.6875 0.625 C-39.06095377 -2.01666988 -50.88181132 0.19341493 -62.5 7.125 C-78.0053955 17.57906269 -88.36653292 32.01537218 -98.25 47.625 C-98.75966309 48.41664551 -99.26932617 49.20829102 -99.79443359 50.02392578 C-102.12331879 53.70810227 -104.19353308 57.26738631 -105.80078125 61.32421875 C-108.07361456 66.70816206 -110.08413555 70.79907254 -115.71728516 73.11914062 C-122.57065652 75.12027872 -129.56639635 76.22501064 -136.60400391 77.36425781 C-142.39676175 78.44868207 -147.88241762 80.33423945 -153.43896484 82.26196289 C-155.27764962 82.88726544 -157.13729061 83.45038311 -159 84 C-159.66 83.67 -160.32 83.34 -161 83 C-160.46432471 78.91269304 -159.89143568 74.83138565 -159.3125 70.75 C-159.16361328 69.61046875 -159.01472656 68.4709375 -158.86132812 67.296875 C-157.05842365 54.85329899 -152.71997952 44.88964697 -145 35 C-144.50113281 34.32453125 -144.00226563 33.6490625 -143.48828125 32.953125 C-124.92278671 9.57089006 -89.7622977 1.13798245 -61.828125 -2.62109375 C-41.71193259 -4.61599468 -19.7486168 -4.30815572 0 0 Z " fill="#B5DAFB" transform="translate(445,69)"/>
<path d="M0 0 C5.92941462 1.00196127 10.36173112 5.43300642 15 9 C16.55460938 10.17175781 16.55460938 10.17175781 18.140625 11.3671875 C37.8958627 26.90334177 43.63050791 52.75448146 50 76 C50.17752808 76.58372879 50.35505615 77.16745758 50.53796387 77.76887512 C51.13641971 80.65875672 51.11933624 83.37718907 51.11352539 86.32910156 C51.11341209 88.25064056 51.11341209 88.25064056 51.11329651 90.21099854 C51.10819026 91.60420775 51.10297427 92.99741657 51.09765625 94.390625 C51.09579032 95.81980337 51.09436724 97.24898238 51.09336853 98.67816162 C51.08955715 102.43300148 51.07973867 106.18780243 51.06866455 109.94262695 C51.05661853 114.45141801 51.05204162 118.9602221 51.04621124 123.46902466 C51.03652615 130.31271013 51.01735998 137.1563103 51 144 C35.82 144 20.64 144 5 144 C5 138.39 5 132.78 5 127 C14.57 127 24.14 127 34 127 C34 117.76 34 108.52 34 99 C30.9578125 99.01160156 27.915625 99.02320313 24.78125 99.03515625 C-16.77118146 99.15786434 -16.77118146 99.15786434 -36 98 C-34.11749299 77.42225094 -28.14444389 57.30981302 -21 38 C-20.73719238 37.28505371 -20.47438477 36.57010742 -20.20361328 35.83349609 C-17.13063081 27.64913998 -13.0324995 20.51044595 -8.19140625 13.2890625 C-5.30150292 8.95163183 -2.63964487 4.49257205 0 0 Z " fill="#C24A34" transform="translate(592,530)"/>
<path d="M0 0 C3.46858834 1.66138228 6.22876517 3.66998583 9.25 6.0625 C33.94368852 25.01391989 63.51070266 32.87289258 94 36 C94 38.97 94 41.94 94 45 C69.58 45 45.16 45 20 45 C20 54.57 20 64.14 20 74 C34.85 74 49.7 74 65 74 C65 79.28 65 84.56 65 90 C49.98455073 91.21336964 35.06591097 91.06974959 20 91 C20 100.24 20 109.48 20 119 C80.06 119 140.12 119 202 119 C202 124.61 202 130.22 202 136 C136.33 136 70.66 136 3 136 C3 111 3 111 8 104 C9.58762112 100.47004677 9.58762112 100.47004677 10.75 96.875 C11.15734375 95.69679688 11.5646875 94.51859375 11.984375 93.3046875 C13.84768007 87.24177945 14.1827367 81.80661336 14.1875 75.5 C14.19974609 74.67757812 14.21199219 73.85515625 14.22460938 73.0078125 C14.25649452 59.19091453 10.7130008 45.86076256 7.5625 32.5 C7.16296027 30.79046997 6.7638694 29.08083497 6.36523438 27.37109375 C5.59886429 24.08668445 4.83011449 20.80284905 4.05908203 17.51953125 C2.68957632 11.68347983 1.342291 5.8423695 0 0 Z " fill="#C24A34" transform="translate(304,538)"/>
<path d="M0 0 C24.42 0 48.84 0 74 0 C74 24.42 74 48.84 74 74 C49.58 74 25.16 74 0 74 C0 64.76 0 55.52 0 46 C30.85714286 44.85714286 30.85714286 44.85714286 45 45 C45 39.72 45 34.44 45 29 C30.15 29 15.3 29 0 29 C0 19.43 0 9.86 0 0 Z " fill="#C24A34" transform="translate(324,583)"/>
<path d="M0 0 C0.01458252 0.63164063 0.02916504 1.26328125 0.04418945 1.9140625 C1.14197096 44.9874399 8.10055918 89.25591282 29.53125 127.2265625 C31 130 31 130 31 132 C22.42 132 13.84 132 5 132 C5 117.15 5 102.3 5 87 C-10.18 87 -25.36 87 -41 87 C-41 71.82 -41 56.64 -41 41 C-41.66 41 -42.32 41 -43 41 C-38.97088258 27.24755329 -29.26364031 18.92152832 -18 11 C-16.92999756 10.23598877 -16.92999756 10.23598877 -15.83837891 9.45654297 C-2.56659994 0 -2.56659994 0 0 0 Z " fill="#C24A34" transform="translate(228,525)"/>
<path d="M0 0 C3.46858834 1.66138228 6.22876517 3.66998583 9.25 6.0625 C33.94368852 25.01391989 63.51070266 32.87289258 94 36 C94 38.97 94 41.94 94 45 C69.58 45 45.16 45 20 45 C20 54.57 20 64.14 20 74 C34.85 74 49.7 74 65 74 C65 79.28 65 84.56 65 90 C49.98455073 91.21336964 35.06591097 91.06974959 20 91 C20 100.24 20 109.48 20 119 C14.39 119 8.78 119 3 119 C3 110.56730769 3 110.56730769 6.55859375 106.1875 C12.56406663 97.07350321 14.17946437 86.13917976 14.1875 75.5 C14.19974609 74.67757812 14.21199219 73.85515625 14.22460938 73.0078125 C14.25649452 59.19091453 10.7130008 45.86076256 7.5625 32.5 C7.16296027 30.79046997 6.7638694 29.08083497 6.36523438 27.37109375 C5.59886429 24.08668445 4.83011449 20.80284905 4.05908203 17.51953125 C2.68957632 11.68347983 1.342291 5.8423695 0 0 Z " fill="#C24A34" transform="translate(304,538)"/>
<path d="M0 0 C0.66 0 1.32 0 2 0 C2 15.18 2 30.36 2 46 C17.18 46 32.36 46 48 46 C48 60.85 48 75.7 48 91 C54.435 90.6596875 54.435 90.6596875 61 90.3125 C74.72433546 89.99125944 74.72433546 89.99125944 78.43359375 93.23828125 C80.41853356 96.09767797 81.75083024 98.75927133 83 102 C83.79788548 103.25246712 84.62431873 104.48813456 85.5 105.6875 C85.995 106.450625 86.49 107.21375 87 108 C85.02 108 83.04 108 81 108 C81 113.28 81 118.56 81 124 C78.03 124 75.06 124 72 124 C72.33 118.72 72.66 113.44 73 108 C59.14 108 45.28 108 31 108 C31 93.15 31 78.3 31 63 C15.82 63 0.64 63 -15 63 C-15 50.42567345 -14.87152953 41.766567 -11.375 30.3125 C-11.01398193 29.06952148 -10.65296387 27.82654297 -10.28100586 26.54589844 C-3.4309576 3.4309576 -3.4309576 3.4309576 0 0 Z " fill="#C24A34" transform="translate(185,566)"/>
<path d="M0 0 C2.85266685 1.37957168 5.54640894 2.90378498 8.23828125 4.57421875 C32.98365131 20.3790563 32.98365131 20.3790563 61.41796875 23.62109375 C77.27944885 19.8056999 92.61164199 10.67829845 105.875 1.43359375 C108 0 108 0 109 0 C109 8.58 109 17.16 109 26 C92.85384135 33.7795128 92.85384135 33.7795128 84 36 C82.53433594 36.39832031 82.53433594 36.39832031 81.0390625 36.8046875 C56.10137276 43.40029814 27.94394415 42.29139865 5 30 C2.31860352 28.26635742 2.31860352 28.26635742 0 26 C-0.56762695 23.15917969 -0.56762695 23.15917969 -0.48828125 19.921875 C-0.47216797 18.76171875 -0.45605469 17.6015625 -0.43945312 16.40625 C-0.39755859 15.1996875 -0.35566406 13.993125 -0.3125 12.75 C-0.28994141 11.52796875 -0.26738281 10.3059375 -0.24414062 9.046875 C-0.18521758 6.03001498 -0.10299265 3.01562485 0 0 Z " fill="#F6C5AA" transform="translate(352,424)"/>
<path d="M0 0 C5.92941462 1.00196127 10.36173112 5.43300642 15 9 C16.55460938 10.17175781 16.55460938 10.17175781 18.140625 11.3671875 C27.03200256 18.35965277 32.413444 25.24033201 36 36 C20.16 36 4.32 36 -12 36 C-12 51.18 -12 66.36 -12 82 C-18.93 82 -25.86 82 -33 82 C-29.10203633 57.92434203 -21.9936008 33.41280558 -8.12109375 13.11328125 C-5.22015387 8.85536397 -2.6090485 4.44049823 0 0 Z " fill="#C24A35" transform="translate(592,530)"/>
<path d="M0 0 C0.01458252 0.63164063 0.02916504 1.26328125 0.04418945 1.9140625 C0.37855243 15.03337893 1.12249972 27.94253714 2.98364258 40.94140625 C3.11407959 41.86824219 3.2445166 42.79507813 3.37890625 43.75 C3.4982251 44.54921875 3.61754395 45.3484375 3.74047852 46.171875 C4.10085214 50.09903216 4 54.05634275 4 58 C-10.85 58 -25.7 58 -41 58 C-41 52.39 -41 46.78 -41 41 C-41.66 41 -42.32 41 -43 41 C-38.97088258 27.24755329 -29.26364031 18.92152832 -18 11 C-16.92999756 10.23598877 -16.92999756 10.23598877 -15.83837891 9.45654297 C-2.56659994 0 -2.56659994 0 0 0 Z " fill="#C24A34" transform="translate(228,525)"/>
<path d="M0 0 C5.39252905 1.70960449 6.78175252 4.18276096 9.453125 8.9609375 C14.35514345 18.59167071 17.34918393 27.39673573 20 38 C-16.63 37.505 -16.63 37.505 -54 37 C-54 9 -54 9 -53 8 C-51.07332493 7.91251793 -49.14348139 7.89302666 -47.21484375 7.90234375 C-45.46010742 7.90717773 -45.46010742 7.90717773 -43.66992188 7.91210938 C-41.82237305 7.92467773 -41.82237305 7.92467773 -39.9375 7.9375 C-38.08415039 7.94426758 -38.08415039 7.94426758 -36.19335938 7.95117188 C-33.12885883 7.96300392 -30.06445279 7.97948827 -27 8 C-26.96261719 9.09699219 -26.92523438 10.19398438 -26.88671875 11.32421875 C-26.82103347 12.77867857 -26.75458701 14.23310416 -26.6875 15.6875 C-26.66494141 16.40873047 -26.64238281 17.12996094 -26.61914062 17.87304688 C-26.39321663 22.37098822 -25.75062688 25.26121225 -23 29 C-19.81859025 29 -17.6846904 28.57507988 -15.21875 26.50390625 C-9.56874965 20.34590148 -6.15101784 13.29533259 -3.3125 5.5 C-2 2 -2 2 0 0 Z " fill="#C66452" transform="translate(514,620)"/>
<path d="M0 0 C-0.19577637 0.93175049 -0.19577637 0.93175049 -0.39550781 1.88232422 C-3.38492903 16.20903381 -5.97058293 30.54074489 -8.10546875 45.01953125 C-9.00349934 51.02339516 -10.00199062 57.01194371 -11 63 C-19.91 63 -28.82 63 -38 63 C-38 47.82 -38 32.64 -38 17 C-39.32 16.67 -40.64 16.34 -42 16 C-41.28199219 15.8040625 -40.56398438 15.608125 -39.82421875 15.40625 C-32.73664743 13.35853325 -25.97993275 10.86781259 -19.1875 8 C-18.00643677 7.50209961 -18.00643677 7.50209961 -16.80151367 6.99414062 C-12.98496748 5.35945291 -9.24678831 3.64256886 -5.55078125 1.75 C-2 0 -2 0 0 0 Z " fill="#C34A34" transform="translate(499,549)"/>
<path d="M0 0 C-2.97 3.96 -2.97 3.96 -6 8 C26.80122133 18.57584386 60.98578979 21.24967164 93.97265625 9.98828125 C97 9 97 9 99 9 C98.566875 8.51789063 98.13375 8.03578125 97.6875 7.5390625 C97.130625 6.90742188 96.57375 6.27578125 96 5.625 C95.443125 4.99851562 94.88625 4.37203125 94.3125 3.7265625 C93 2 93 2 93 0 C97.64073925 0.28125692 100.14028602 2.45124187 103.546875 5.33203125 C106.48407771 8.7034978 106.11367525 12.45127921 106.0625 16.75 C106.05347656 17.73484375 106.04445313 18.7196875 106.03515625 19.734375 C106.02355469 20.48203125 106.01195312 21.2296875 106 22 C105.34 22 104.68 22 104 22 C103.690625 20.865625 103.38125 19.73125 103.0625 18.5625 C102.37075469 15.21224901 102.37075469 15.21224901 101 14 C100.34 14.721875 99.68 15.44375 99 16.1875 C85.20060971 29.72078634 64.41264758 32.37954183 46.01220703 32.30078125 C27.5980617 31.93150922 9.60903346 27.69288918 -5 16 C-6.32 15.01 -7.64 14.02 -9 13 C-9.99 16.3 -10.98 19.6 -12 23 C-12.66 22.67 -13.32 22.34 -14 22 C-14.37725676 14.92992879 -14.24013595 10.0408592 -9.640625 4.3046875 C-6.14532466 0.43102991 -5.72007632 0 0 0 Z " fill="#F7C5AA" transform="translate(360,352)"/>
<path d="M0 0 C1.77668957 3.55337914 2.59884349 6.15679872 3.40454102 9.98681641 C3.66143204 11.19552399 3.91832306 12.40423157 4.18299866 13.64956665 C4.45690731 14.96684191 4.73053608 16.28417539 5.00390625 17.6015625 C5.28978152 18.96201477 5.57599611 20.32239578 5.86253357 21.68270874 C6.46200738 24.53496542 7.05748854 27.38801875 7.65014648 30.24169922 C8.40486638 33.87423147 9.16916949 37.50466482 9.93652439 41.13454628 C10.52978906 43.94612011 11.11794715 46.75874412 11.70463371 49.57169724 C11.98416268 50.90905962 12.2651992 52.24610793 12.54785347 53.58281326 C12.94532323 55.46640442 13.33519389 57.35159408 13.72485352 59.23681641 C13.9475441 60.30396881 14.17023468 61.37112122 14.39967346 62.47061157 C15.16117156 66.94754606 15.54813016 71.48130158 16 76 C-4.46 76 -24.92 76 -46 76 C-46 70.72 -46 65.44 -46 60 C-30.82 60 -15.64 60 0 60 C0 40.2 0 20.4 0 0 Z " fill="#C76452" transform="translate(643,614)"/>
<path d="M0 0 C0.33 0.66 0.66 1.32 1 2 C-21.49254499 20.7290286 -44.49490969 35.43504598 -73 43 C-73.66870117 43.17934082 -74.33740234 43.35868164 -75.02636719 43.54345703 C-106.85477449 51.63311028 -140.85287506 44.97058281 -169 29 C-181.34320743 21.60255053 -192.27582969 12.55649561 -203 3 C-202.67 2.34 -202.34 1.68 -202 1 C-201.44699219 1.56654297 -201.44699219 1.56654297 -200.8828125 2.14453125 C-173.11189399 28.49604726 -132.55898705 37.13245113 -95.64599609 36.17041016 C-62.30106406 34.61190188 -26.0496385 21.06140985 0 0 Z " fill="#366185" transform="translate(509,474)"/>
<path d="M0 0 C23.43 0 46.86 0 71 0 C71 12 71 12 70 16 C46.9 16 23.8 16 0 16 C0 10.72 0 5.44 0 0 Z " fill="#C66351" transform="translate(187,674)"/>
<path d="M0 0 C20.79 0 41.58 0 63 0 C63 5.28 63 10.56 63 16 C42.21 16 21.42 16 0 16 C0 10.72 0 5.44 0 0 Z " fill="#C66351" transform="translate(398,674)"/>
<path d="M0 0 C9.57 0 19.14 0 29 0 C29 9.57 29 19.14 29 29 C19.43 29 9.86 29 0 29 C0 19.43 0 9.86 0 0 Z " fill="#C66351" transform="translate(597,583)"/>
<path d="M0 0 C9.57 0 19.14 0 29 0 C29 9.57 29 19.14 29 29 C19.43 29 9.86 29 0 29 C0 19.43 0 9.86 0 0 Z " fill="#C66351" transform="translate(415,583)"/>
<path d="M0 0 C9.57 0 19.14 0 29 0 C29 9.57 29 19.14 29 29 C19.43 29 9.86 29 0 29 C0 19.43 0 9.86 0 0 Z " fill="#C66351" transform="translate(324,583)"/>
<path d="M0 0 C9.57 0 19.14 0 29 0 C29 9.57 29 19.14 29 29 C19.43 29 9.86 29 0 29 C0 19.43 0 9.86 0 0 Z " fill="#C66351" transform="translate(187,583)"/>
<path d="M0 0 C10.23 0 20.46 0 31 0 C30.525625 4.0425 30.05125 8.085 29.5625 12.25 C29.41498291 13.51875977 29.26746582 14.78751953 29.11547852 16.09472656 C28.99615967 17.09987305 28.87684082 18.10501953 28.75390625 19.140625 C28.63345947 20.16704102 28.5130127 21.19345703 28.38891602 22.25097656 C28 25 28 25 27 29 C18.09 29 9.18 29 0 29 C0 19.43 0 9.86 0 0 Z " fill="#C66351" transform="translate(461,583)"/>
<path d="M0 0 C9.57 0 19.14 0 29 0 C29 9.24 29 18.48 29 28 C19.43 28 9.86 28 0 28 C0 18.76 0 9.52 0 0 Z " fill="#C66351" transform="translate(597,629)"/>
<path d="M0 0 C9.57 0 19.14 0 29 0 C29 9.24 29 18.48 29 28 C19.43 28 9.86 28 0 28 C0 18.76 0 9.52 0 0 Z " fill="#C66351" transform="translate(415,629)"/>
<path d="M0 0 C9.57 0 19.14 0 29 0 C29 9.24 29 18.48 29 28 C19.43 28 9.86 28 0 28 C0 18.76 0 9.52 0 0 Z " fill="#C66351" transform="translate(324,629)"/>
<path d="M0 0 C9.57 0 19.14 0 29 0 C29 9.24 29 18.48 29 28 C19.43 28 9.86 28 0 28 C0 18.76 0 9.52 0 0 Z " fill="#C76452" transform="translate(187,629)"/>
<path d="M0 0 C9.24 0 18.48 0 28 0 C28 9.57 28 19.14 28 29 C18.76 29 9.52 29 0 29 C0 19.43 0 9.86 0 0 Z " fill="#C66351" transform="translate(370,583)"/>
<path d="M0 0 C9.24 0 18.48 0 28 0 C28 9.24 28 18.48 28 28 C18.76 28 9.52 28 0 28 C0 18.76 0 9.52 0 0 Z " fill="#C76452" transform="translate(370,629)"/>
<path d="M0 0 C1.26430259 2.52860518 1.05199673 4.14321541 0.95703125 6.96875 C0.17337953 40.34814764 6.90065973 74.6012929 21 105 C12.19720666 102.06573555 6.99928339 89.34063506 3.04296875 81.4453125 C-6.85672036 60.64734116 -12.71823014 31.9432675 -6 9.3984375 C-4.48409188 5.76262661 -2.53153467 3.01047366 0 0 Z " fill="#386287" transform="translate(262,509)"/>
<path d="M0 0 C3.97915159 -0.02886984 7.95827653 -0.04675406 11.9375 -0.0625 C13.07380859 -0.07087891 14.21011719 -0.07925781 15.38085938 -0.08789062 C16.46044922 -0.09111328 17.54003906 -0.09433594 18.65234375 -0.09765625 C20.15269165 -0.10551147 20.15269165 -0.10551147 21.68334961 -0.11352539 C24 0 24 0 25 1 C25.08767112 3.07262076 25.10695873 5.14820294 25.09765625 7.22265625 C25.09515869 8.35711182 25.09266113 9.49156738 25.09008789 10.66040039 C25.08098389 12.11309326 25.07187988 13.56578613 25.0625 15.0625 C25.041875 19.661875 25.02125 24.26125 25 29 C15.76 29 6.52 29 -3 29 C-3 18.8616025 -3 18.8616025 -2.59765625 15.25390625 C-2.51193359 14.47982422 -2.42621094 13.70574219 -2.33789062 12.90820312 C-2.24701172 12.13412109 -2.15613281 11.36003906 -2.0625 10.5625 C-1.97548828 9.76134766 -1.88847656 8.96019531 -1.79882812 8.13476562 C-1.13087854 2.26175709 -1.13087854 2.26175709 0 0 Z " fill="#C66351" transform="translate(556,628)"/>
<path d="M0 0 C0.66 0 1.32 0 2 0 C2 20.79 2 41.58 2 63 C-3.61 63 -9.22 63 -15 63 C-16.47698106 41.76839731 -10.15774966 20.13937991 -1 1 C-0.67 0.67 -0.34 0.34 0 0 Z " fill="#C24A34" transform="translate(185,566)"/>
<path d="M0 0 C0.66 0.33 1.32 0.66 2 1 C1.41734375 1.69480469 0.8346875 2.38960937 0.234375 3.10546875 C-18.28624395 26.08151961 -33.01073109 56.09013175 -38.45288086 85.21484375 C-38.63343018 85.80394531 -38.81397949 86.39304687 -39 87 C-39.99 87.495 -39.99 87.495 -41 88 C-41.9913789 57.55704182 -34.74120075 33.82355639 -13.99609375 10.7734375 C-9.90704636 6.50034297 -5.50443955 2.36458319 0 0 Z " fill="#366185" transform="translate(556,521)"/>
<path d="M0 0 C14.0763875 9.38425833 25.47549318 17.42647953 31 34 C20.77 34 10.54 34 0 34 C0 22.78 0 11.56 0 0 Z " fill="#C66351" transform="translate(597,532)"/>
<path d="M0 0 C0 10.89 0 21.78 0 33 C-10.23 33 -20.46 33 -31 33 C-26.3754858 19.12645741 -17.53660552 11.24658975 -6 3 C-5.24332031 2.40445313 -4.48664063 1.80890625 -3.70703125 1.1953125 C-2 0 -2 0 0 0 Z " fill="#C66351" transform="translate(216,533)"/>
<path d="M0 0 C1.70255861 2.55383792 3.00021295 4.95118073 4.3125 7.7109375 C4.74820313 8.62617187 5.18390625 9.54140625 5.6328125 10.484375 C6.08398438 11.43828125 6.53515625 12.3921875 7 13.375 C7.45117188 14.32117188 7.90234375 15.26734375 8.3671875 16.2421875 C10.37270635 20.46683076 12.26116717 24.65291793 14 29 C5.42 29 -3.16 29 -12 29 C-12 19.76 -12 10.52 -12 1 C-6.06 0.505 -6.06 0.505 0 0 Z " fill="#C66453" transform="translate(245,628)"/>
<path d="M0 0 C6.93 0.495 6.93 0.495 14 1 C14 10.57 14 20.14 14 30 C7.07 30 0.14 30 -7 30 C-5.19722825 19.72420103 -3.01950842 9.99561407 0 0 Z " fill="#C66453" transform="translate(566,582)"/>
<path d="M0 0 C3.5042886 1.56382973 6.24860574 3.68569756 9.25 6.0625 C19.59838109 14.00446926 31.06379364 19.89231578 43.109375 24.80859375 C45.44965399 25.7731682 47.7359665 26.86798325 50 28 C35.81 28.33 21.62 28.66 7 29 C5.845 24.58625 4.69 20.1725 3.5 15.625 C3.13455078 14.23361816 2.76910156 12.84223633 2.39257812 11.40869141 C2.10833984 10.31733887 1.82410156 9.22598633 1.53125 8.1015625 C1.23798828 6.98088379 0.94472656 5.86020508 0.64257812 4.70556641 C0 2 0 2 0 0 Z " fill="#C24B36" transform="translate(304,538)"/>
<path d="M0 0 C9.57 0 19.14 0 29 0 C29 5.61 29 11.22 29 17 C19.43 17 9.86 17 0 17 C0 11.39 0 5.78 0 0 Z " fill="#C34A34" transform="translate(187,657)"/>
<path d="M0 0 C9.57 0 19.14 0 29 0 C29 5.61 29 11.22 29 17 C19.43 17 9.86 17 0 17 C0 11.39 0 5.78 0 0 Z " fill="#C24A34" transform="translate(597,612)"/>
<path d="M0 0 C9.57 0 19.14 0 29 0 C29 5.61 29 11.22 29 17 C19.43 17 9.86 17 0 17 C0 11.39 0 5.78 0 0 Z " fill="#C24A34" transform="translate(415,612)"/>
<path d="M0 0 C9.57 0 19.14 0 29 0 C29 5.61 29 11.22 29 17 C19.43 17 9.86 17 0 17 C0 11.39 0 5.78 0 0 Z " fill="#C34A34" transform="translate(187,566)"/>
<path d="M0 0 C9.24 0 18.48 0 28 0 C28 5.61 28 11.22 28 17 C18.76 17 9.52 17 0 17 C0 11.39 0 5.78 0 0 Z " fill="#C34A34" transform="translate(370,657)"/>
<path d="M0 0 C5.61 0 11.22 0 17 0 C17 9.24 17 18.48 17 28 C11.39 28 5.78 28 0 28 C0 18.76 0 9.52 0 0 Z " fill="#C34A34" transform="translate(626,629)"/>
<path d="M0 0 C5.61 0 11.22 0 17 0 C17 9.24 17 18.48 17 28 C11.39 28 5.78 28 0 28 C0 18.76 0 9.52 0 0 Z " fill="#C34A34" transform="translate(398,629)"/>
<path d="M0 0 C5.61 0 11.22 0 17 0 C17 9.24 17 18.48 17 28 C11.39 28 5.78 28 0 28 C0 18.76 0 9.52 0 0 Z " fill="#C34A34" transform="translate(216,629)"/>
<path d="M0 0 C9.57 0 19.14 0 29 0 C29 5.28 29 10.56 29 16 C19.43 16 9.86 16 0 16 C0 10.72 0 5.44 0 0 Z " fill="#C66351" transform="translate(597,674)"/>
<path d="M0 0 C9.57 0 19.14 0 29 0 C29 5.28 29 10.56 29 16 C19.43 16 9.86 16 0 16 C0 10.72 0 5.44 0 0 Z " fill="#C76452" transform="translate(506,674)"/>
<path d="M0 0 C9.57 0 19.14 0 29 0 C29 5.28 29 10.56 29 16 C19.43 16 9.86 16 0 16 C0 10.72 0 5.44 0 0 Z " fill="#C76452" transform="translate(187,674)"/>
<path d="M0 0 C9.24 0 18.48 0 28 0 C28 5.28 28 10.56 28 16 C18.76 16 9.52 16 0 16 C0 10.72 0 5.44 0 0 Z " fill="#C76452" transform="translate(370,674)"/>
<path d="M0 0 C5.28 0 10.56 0 16 0 C16 9.24 16 18.48 16 28 C10.72 28 5.44 28 0 28 C0 18.76 0 9.52 0 0 Z " fill="#C34A34" transform="translate(444,629)"/>
<path d="M0 0 C8.91 0 17.82 0 27 0 C26.67 5.28 26.34 10.56 26 16 C17.42 16 8.84 16 0 16 C0 10.72 0 5.44 0 0 Z " fill="#C24A34" transform="translate(461,612)"/>
<path d="M0 0 C3 1 3 1 4.02734375 2.9777832 C4.32769531 3.82687256 4.62804687 4.67596191 4.9375 5.55078125 C5.27523438 6.47697266 5.61296875 7.40316406 5.9609375 8.35742188 C6.30382812 9.33259766 6.64671875 10.30777344 7 11.3125 C7.68143332 13.2274301 8.36873651 15.1402837 9.0625 17.05078125 C9.36285156 17.90325439 9.66320312 18.75572754 9.97265625 19.6340332 C11.04682887 22.10784661 12.22919982 23.96991223 14 26 C16.09415804 26.79623822 16.09415804 26.79623822 18 27 C18 29.64 18 32.28 18 35 C11.73 35 5.46 35 -1 35 C-1 36.65 -1 38.3 -1 40 C-1.33 40 -1.66 40 -2 40 C-2.02486762 35.57088594 -2.04293889 31.14180975 -2.05493164 26.71264648 C-2.05993555 25.2084075 -2.06674073 23.70417332 -2.07543945 22.19995117 C-2.08767884 20.02781991 -2.09326786 17.85575341 -2.09765625 15.68359375 C-2.10289307 14.37962646 -2.10812988 13.07565918 -2.11352539 11.73217773 C-1.81176629 1.81176629 -1.81176629 1.81176629 0 0 Z " fill="#C56554" transform="translate(289,622)"/>
<path d="M0 0 C8.25 0 16.5 0 25 0 C25 5.28 25 10.56 25 16 C17.08 16 9.16 16 1 16 C0.67 10.72 0.34 5.44 0 0 Z " fill="#C66351" transform="translate(555,674)"/>
<path d="M0 0 C6.93 0 13.86 0 21 0 C21 5.28 21 10.56 21 16 C13.08 16 5.16 16 -3 16 C-2 7 -2 7 0 0 Z " fill="#C24A35" transform="translate(559,612)"/>
<path d="M0 0 C2.31 0.33 4.62 0.66 7 1 C7 10.24 7 19.48 7 29 C1.39 29 -4.22 29 -10 29 C-10 20.54375 -10 20.54375 -6.4453125 16.20703125 C-3.28329526 11.37854547 -1.77766162 5.45401713 0 0 Z " fill="#C24B36" transform="translate(317,628)"/>
<path d="M0 0 C1 3 1 3 -0.37109375 6.2578125 C-1.04482279 7.55481659 -1.73465274 8.84354139 -2.4375 10.125 C-2.98784912 11.13433594 -2.98784912 11.13433594 -3.54931641 12.1640625 C-11.18368025 25.74206746 -23.09648442 35.05044485 -38.0546875 39.62890625 C-40.1668183 40.03182277 -42.10175592 40.09830407 -44.25 40.0625 C-46.10625 40.0315625 -46.10625 40.0315625 -48 40 C-48 39.34 -48 38.68 -48 38 C-47.12214844 37.55914063 -47.12214844 37.55914063 -46.2265625 37.109375 C-29.6036969 28.42355334 -9.1812394 16.97900436 0 0 Z " fill="#386287" transform="translate(554,505)"/>
<path d="M0 0 C0 4.62 0 9.24 0 14 C-9.57 14 -19.14 14 -29 14 C-29 11.03 -29 8.06 -29 5 C-2.73333333 0 -2.73333333 0 0 0 Z " fill="#C14B36" transform="translate(444,569)"/>
<path d="M0 0 C6.27 0 12.54 0 19 0 C19 5.61 19 11.22 19 17 C13.06 17 7.12 17 1 17 C-0.42947021 11.28211918 -0.05892502 5.89250161 0 0 Z " fill="#C34A34" transform="translate(288,657)"/>
<path d="M0 0 C1.815 0.28875 3.63 0.5775 5.5 0.875 C13.31408397 2.08114306 21.15125796 3.05291174 29 4 C29 6.97 29 9.94 29 13 C19.76 13 10.52 13 1 13 C0.67 8.71 0.34 4.42 0 0 Z " fill="#C24B36" transform="translate(369,570)"/>
<path d="M0 0 C5.61 0 11.22 0 17 0 C17 5.61 17 11.22 17 17 C11.39 17 5.78 17 0 17 C0 11.39 0 5.78 0 0 Z " fill="#9E3421" transform="translate(626,657)"/>
<path d="M0 0 C5.61 0 11.22 0 17 0 C17 5.61 17 11.22 17 17 C11.39 17 5.78 17 0 17 C0 11.39 0 5.78 0 0 Z " fill="#9E3421" transform="translate(489,657)"/>
<path d="M0 0 C5.61 0 11.22 0 17 0 C17 5.61 17 11.22 17 17 C11.39 17 5.78 17 0 17 C0 11.39 0 5.78 0 0 Z " fill="#9E3421" transform="translate(444,657)"/>
<path d="M0 0 C5.61 0 11.22 0 17 0 C17 5.61 17 11.22 17 17 C11.39 17 5.78 17 0 17 C0 11.39 0 5.78 0 0 Z " fill="#9E3421" transform="translate(398,657)"/>
<path d="M0 0 C5.61 0 11.22 0 17 0 C17 5.61 17 11.22 17 17 C11.39 17 5.78 17 0 17 C0 11.39 0 5.78 0 0 Z " fill="#9E3421" transform="translate(353,657)"/>
<path d="M0 0 C5.61 0 11.22 0 17 0 C17 5.61 17 11.22 17 17 C11.39 17 5.78 17 0 17 C0 11.39 0 5.78 0 0 Z " fill="#9E3421" transform="translate(307,657)"/>
<path d="M0 0 C5.61 0 11.22 0 17 0 C17 5.61 17 11.22 17 17 C11.39 17 5.78 17 0 17 C0 11.39 0 5.78 0 0 Z " fill="#9E3421" transform="translate(216,657)"/>
<path d="M0 0 C5.61 0 11.22 0 17 0 C17 5.61 17 11.22 17 17 C11.39 17 5.78 17 0 17 C0 11.39 0 5.78 0 0 Z " fill="#9E3421" transform="translate(170,657)"/>
<path d="M0 0 C5.61 0 11.22 0 17 0 C17 5.61 17 11.22 17 17 C11.39 17 5.78 17 0 17 C0 11.39 0 5.78 0 0 Z " fill="#9E3421" transform="translate(626,612)"/>
<path d="M0 0 C5.61 0 11.22 0 17 0 C17 5.61 17 11.22 17 17 C11.39 17 5.78 17 0 17 C0 11.39 0 5.78 0 0 Z " fill="#9E3421" transform="translate(398,612)"/>
<path d="M0 0 C5.61 0 11.22 0 17 0 C17 5.61 17 11.22 17 17 C11.39 17 5.78 17 0 17 C0 11.39 0 5.78 0 0 Z " fill="#9E3421" transform="translate(216,612)"/>
<path d="M0 0 C5.61 0 11.22 0 17 0 C17 5.61 17 11.22 17 17 C11.39 17 5.78 17 0 17 C0 11.39 0 5.78 0 0 Z " fill="#9E3421" transform="translate(170,612)"/>
<path d="M0 0 C5.61 0 11.22 0 17 0 C17 5.61 17 11.22 17 17 C11.39 17 5.78 17 0 17 C0 11.39 0 5.78 0 0 Z " fill="#9E3421" transform="translate(580,566)"/>
<path d="M0 0 C5.61 0 11.22 0 17 0 C17 5.28 17 10.56 17 16 C11.39 16 5.78 16 0 16 C0 10.72 0 5.44 0 0 Z " fill="#C34A35" transform="translate(626,674)"/>
<path d="M0 0 C5.61 0 11.22 0 17 0 C17 5.28 17 10.56 17 16 C11.39 16 5.78 16 0 16 C0 10.72 0 5.44 0 0 Z " fill="#C34B35" transform="translate(580,674)"/>
<path d="M0 0 C5.61 0 11.22 0 17 0 C17 5.28 17 10.56 17 16 C11.39 16 5.78 16 0 16 C0 10.72 0 5.44 0 0 Z " fill="#C34A35" transform="translate(489,674)"/>
<path d="M0 0 C5.61 0 11.22 0 17 0 C17 5.28 17 10.56 17 16 C11.39 16 5.78 16 0 16 C0 10.72 0 5.44 0 0 Z " fill="#C34B35" transform="translate(444,674)"/>
<path d="M0 0 C5.61 0 11.22 0 17 0 C17 5.28 17 10.56 17 16 C11.39 16 5.78 16 0 16 C0 10.72 0 5.44 0 0 Z " fill="#C34A35" transform="translate(398,674)"/>
<path d="M0 0 C5.61 0 11.22 0 17 0 C17 5.28 17 10.56 17 16 C11.39 16 5.78 16 0 16 C0 10.72 0 5.44 0 0 Z " fill="#C34B35" transform="translate(353,674)"/>
<path d="M0 0 C5.61 0 11.22 0 17 0 C17 5.28 17 10.56 17 16 C11.39 16 5.78 16 0 16 C0 10.72 0 5.44 0 0 Z " fill="#C34A35" transform="translate(307,674)"/>
<path d="M0 0 C5.61 0 11.22 0 17 0 C17 5.28 17 10.56 17 16 C11.39 16 5.78 16 0 16 C0 10.72 0 5.44 0 0 Z " fill="#C34A35" transform="translate(216,674)"/>
<path d="M0 0 C5.61 0 11.22 0 17 0 C17 5.28 17 10.56 17 16 C11.39 16 5.78 16 0 16 C0 10.72 0 5.44 0 0 Z " fill="#C34A35" transform="translate(170,674)"/>
<path d="M0 0 C5.28 0 10.56 0 16 0 C16 5.61 16 11.22 16 17 C10.72 17 5.44 17 0 17 C0 11.39 0 5.78 0 0 Z " fill="#9D3421" transform="translate(581,657)"/>
<path d="M0 0 C0 5.61 0 11.22 0 17 C-5.61 17 -11.22 17 -17 17 C-17 12.38 -17 7.76 -17 3 C-10.64472466 0.91059441 -6.88230447 0 0 0 Z " fill="#9E3623" transform="translate(461,566)"/>
<path d="M0 0 C0.33 0 0.66 0 1 0 C1.12818318 11.37981825 0.79568202 22.64732258 0 34 C-4.29 34 -8.58 34 -13 34 C-12.46936717 27.43113147 -10.16623102 21.9144446 -7.625 15.875 C-7.22539063 14.89917969 -6.82578125 13.92335938 -6.4140625 12.91796875 C-4.54066655 8.40086602 -2.67918461 4.11114675 0 0 Z " fill="#C24B36" transform="translate(580,549)"/>
<path d="M0 0 C10.83984375 -0.09765625 10.83984375 -0.09765625 14 0 C16.72477582 2.72477582 16.0625 9.29511885 16.0625 12.9375 C16.041875 14.278125 16.02125 15.61875 16 17 C10.72 17 5.44 17 0 17 C0 11.39 0 5.78 0 0 Z " fill="#9D3523" transform="translate(216,566)"/>
<path d="M0 0 C0.33 0 0.66 0 1 0 C1.18006592 0.80497925 1.18006592 0.80497925 1.36376953 1.6262207 C3.83902401 12.59255275 6.55990553 23.37471003 10.11962891 34.04418945 C12 39.72049024 12 39.72049024 12 43 C8.04 43 4.08 43 0 43 C0 28.81 0 14.62 0 0 Z " fill="#C24C38" transform="translate(233,586)"/>
<path d="M0 0 C5.28 0 10.56 0 16 0 C16 5.28 16 10.56 16 16 C10.72 16 5.44 16 0 16 C0 10.72 0 5.44 0 0 Z " fill="#9D3421" transform="translate(581,612)"/>
<path d="M0 0 C5.28 0 10.56 0 16 0 C16 5.28 16 10.56 16 16 C10.72 16 5.44 16 0 16 C0 10.72 0 5.44 0 0 Z " fill="#9D3421" transform="translate(444,612)"/>
<path d="M0 0 C5.28 0 10.56 0 16 0 C16 5.28 16 10.56 16 16 C10.72 16 5.44 16 0 16 C0 10.72 0 5.44 0 0 Z " fill="#9D3421" transform="translate(353,612)"/>
<path d="M0 0 C2.619375 0.61875 5.23875 1.2375 7.9375 1.875 C8.7637085 2.06562012 9.58991699 2.25624023 10.44116211 2.45263672 C12.31006063 2.90723994 14.15646008 3.45154187 16 4 C17.92572521 7.85145043 17.04883218 12.80043252 17 17 C11.39 17 5.78 17 0 17 C0 11.39 0 5.78 0 0 Z " fill="#9E3522" transform="translate(353,566)"/>
<path d="M0 0 C4.29 0 8.58 0 13 0 C14.91607362 5.74822085 15.51771891 10.05186659 16 16 C10.72 16 5.44 16 0 16 C0 10.72 0 5.44 0 0 Z " fill="#C76452" transform="translate(643,674)"/>
<path d="M0 0 C4.29 0 8.58 0 13 0 C13 5.28 13 10.56 13 16 C7.72 16 2.44 16 -3 16 C-2.48263876 10.39525319 -1.71036463 5.3591425 0 0 Z " fill="#C76452" transform="translate(157,674)"/>
<path d="M0 0 C4.52380289 4.24963302 8.38317661 8.95520887 12 14 C12 14.33 12 14.66 12 15 C10.02 15 8.04 15 6 15 C6 20.28 6 25.56 6 31 C3.03 31 0.06 31 -3 31 C-2.68780418 27.70830424 -2.37525045 24.41664308 -2.0625 21.125 C-1.97548828 20.2071875 -1.88847656 19.289375 -1.79882812 18.34375 C-1.21733442 12.22729765 -0.61727613 6.11294453 0 0 Z " fill="#9E3624" transform="translate(260,659)"/>
<path d="M0 0 C2.5543692 2.46685334 4.74808398 4.92914209 6.8125 7.8125 C12.03395825 14.65993867 18.36345905 20.53158796 24.50708008 26.53881836 C25.67849385 27.68532881 26.840971 28.840971 28 30 C18.83776109 29.50024151 11.78487372 25.71992916 5.5078125 19.01953125 C1.22946479 13.28920544 -0.61519148 7.07470198 0 0 Z " fill="#386287" transform="translate(274,505)"/>
<path d="M0 0 C3.3 0 6.6 0 10 0 C10.50546036 2.08201528 11.00416835 4.16567067 11.5 6.25 C11.7784375 7.41015625 12.056875 8.5703125 12.34375 9.765625 C13 13 13 13 13 17 C8.71 17 4.42 17 0 17 C0 11.39 0 5.78 0 0 Z " fill="#C34A35" transform="translate(643,657)"/>
<path d="M0 0 C3.3 0 6.6 0 10 0 C10 5.61 10 11.22 10 17 C5.71 17 1.42 17 -3 17 C-1.125 4.5 -1.125 4.5 0 0 Z " fill="#C34A35" transform="translate(160,657)"/>
<path d="M0 0 C0.99257813 0.51949219 1.98515625 1.03898438 3.0078125 1.57421875 C11.82618921 6.12310416 20.55762226 9.93122723 30 13 C30 13.33 30 13.66 30 14 C20.1 14 10.2 14 0 14 C0 9.38 0 4.76 0 0 Z " fill="#C56554" transform="translate(324,552)"/>
<path d="M0 0 C1 2 1 2 0 13 C-10.56 13 -21.12 13 -32 13 C-32 12.67 -32 12.34 -32 12 C-31.28199219 11.8040625 -30.56398438 11.608125 -29.82421875 11.40625 C-19.52400766 8.43034841 -9.81438786 4.28162214 0 0 Z " fill="#C56555" transform="translate(489,553)"/>
<path d="M0 0 C2.97 0 5.94 0 9 0 C9 9.57 9 19.14 9 29 C7.68 29 6.36 29 5 29 C4.67 29.66 4.34 30.32 4 31 C3.9498877 30.41621582 3.89977539 29.83243164 3.84814453 29.23095703 C3.61284118 26.52843666 3.36895876 23.82675227 3.125 21.125 C3.04636719 20.2071875 2.96773438 19.289375 2.88671875 18.34375 C2.31626453 12.11263467 1.32108489 6.11695607 0 0 Z " fill="#C14D39" transform="translate(315,583)"/>
<path d="M0 0 C3.96 0 7.92 0 12 0 C12 5.61 12 11.22 12 17 C9.03 17 6.06 17 3 17 C2.49019119 15.29456816 1.99261732 13.58547682 1.5 11.875 C1.2215625 10.92367187 0.943125 9.97234375 0.65625 8.9921875 C0 6 0 6 0 0 Z " fill="#9D3624" transform="translate(312,566)"/>
<path d="M0 0 C0.33 0 0.66 0 1 0 C1 5.94 1 11.88 1 18 C-4.61 18 -10.22 18 -16 18 C-16 15.36 -16 12.72 -16 10 C-15.175 10.144375 -14.35 10.28875 -13.5 10.4375 C-8.3175118 9.78968897 -5.51775553 6.69998161 -2 3 C-1.34 2.01 -0.68 1.02 0 0 Z " fill="#C24B36" transform="translate(505,639)"/>
<path d="M0 0 C7 0 7 0 9.9375 1.8125 C13.03749396 6.60339976 12.33970869 10.36083576 12 16 C8.04 16 4.08 16 0 16 C0 10.72 0 5.44 0 0 Z " fill="#C24B36" transform="translate(266,674)"/>
<path d="M0 0 C2.98199157 2.98199157 2.99497348 6.60697369 3.625 10.625 C3.7590625 11.40746094 3.893125 12.18992187 4.03125 12.99609375 C4.85450284 18.06161889 5.12913953 22.8696386 5 28 C2.03 28 -0.94 28 -4 28 C-3.38297872 8.46808511 -3.38297872 8.46808511 0 0 Z " fill="#9E3826" transform="translate(551,662)"/>
<path d="M0 0 C5.61 0 11.22 0 17 0 C17 2.97 17 5.94 17 9 C11.39 9 5.78 9 0 9 C0 6.03 0 3.06 0 0 Z " fill="#9E3421" transform="translate(398,574)"/>
<path d="M0 0 C-0.47444755 2.64676089 -0.95431328 5.29233364 -1.4375 7.9375 C-1.57220703 8.69224609 -1.70691406 9.44699219 -1.84570312 10.22460938 C-2.88671875 15.88671875 -2.88671875 15.88671875 -4 17 C-5.99958364 17.04080783 -8.00045254 17.04254356 -10 17 C-10.62587492 6.9164597 -10.62587492 6.9164597 -8.25 3.4375 C-2.86956522 0 -2.86956522 0 0 0 Z " fill="#C04E3B" transform="translate(499,549)"/>
<path d="M0 0 C0.99 0 1.98 0 3 0 C3.84161854 2.08000011 4.67300763 4.16414146 5.5 6.25 C5.9640625 7.41015625 6.428125 8.5703125 6.90625 9.765625 C8 13 8 13 8 17 C5.36 17 2.72 17 0 17 C0 11.39 0 5.78 0 0 Z " fill="#A03623" transform="translate(626,566)"/>
<path d="M0 0 C0.66 0 1.32 0 2 0 C2 5.61 2 11.22 2 17 C-0.64 17 -3.28 17 -6 17 C-5.45388522 11.81190963 -3.84540159 3.84540159 0 0 Z " fill="#A03623" transform="translate(185,566)"/>
<path d="M0 0 C0.33 0 0.66 0 1 0 C1.81399927 3.39547574 2.6259338 6.79144197 3.4375 10.1875 C3.66759766 11.14720703 3.89769531 12.10691406 4.13476562 13.09570312 C4.35712891 14.02705078 4.57949219 14.95839844 4.80859375 15.91796875 C5.01282959 16.77156982 5.21706543 17.6251709 5.42749023 18.50463867 C5.99889392 20.99517899 6.51098931 23.49210179 7 26 C4.69 26 2.38 26 0 26 C0 17.42 0 8.84 0 0 Z " fill="#C46758" transform="translate(233,586)"/>
<path d="M0 0 C1.32 0 2.64 0 4 0 C4 5.61 4 11.22 4 17 C2.02 17 0.04 17 -2 17 C-1.85941524 14.54126232 -1.71277001 12.08314825 -1.5625 9.625 C-1.52318359 8.92632813 -1.48386719 8.22765625 -1.44335938 7.5078125 C-1.11328125 2.2265625 -1.11328125 2.2265625 0 0 Z " fill="#9F3623" transform="translate(320,612)"/>
<path d="M0 0 C0.33 0 0.66 0 1 0 C1 5.61 1 11.22 1 17 C-1.64 17 -4.28 17 -7 17 C-6.37954537 12.76677156 -4.89476441 9.47709705 -2.9375 5.6875 C-2.38964844 4.61886719 -1.84179688 3.55023437 -1.27734375 2.44921875 C-0.64505859 1.23685547 -0.64505859 1.23685547 0 0 Z " fill="#C46353" transform="translate(580,549)"/>
<path d="M0 0 C3.88019859 1.25844278 5.9411842 2.42416203 8 6 C8 6.99 8 7.98 8 9 C4.37 9 0.74 9 -3 9 C-3.36923077 3.46153846 -3.36923077 3.46153846 -1.5 1.125 C-1.005 0.75375 -0.51 0.3825 0 0 Z " fill="#C0513E" transform="translate(514,620)"/>
<path d="M0 0 C1.98 0 3.96 0 6 0 C5.68985608 2.08368538 5.3767948 4.16693668 5.0625 6.25 C4.88847656 7.41015625 4.71445312 8.5703125 4.53515625 9.765625 C4.1272264 12.23106961 3.66098697 14.59424562 3 17 C2.01 17 1.02 17 0 17 C0 11.39 0 5.78 0 0 Z " fill="#9E3827" transform="translate(489,566)"/>
<path d="M0 0 C0.33 0.66 0.66 1.32 1 2 C-0.72572488 3.44163007 -2.4557347 4.87813165 -4.1875 6.3125 C-5.63189453 7.51326172 -5.63189453 7.51326172 -7.10546875 8.73828125 C-9.65588917 10.73111988 -12.18642401 12.41061246 -15 14 C-13.64687272 9.55837881 -11.91641846 7.83084613 -8.0625 5.3125 C-7.18722656 4.73113281 -6.31195313 4.14976562 -5.41015625 3.55078125 C-4.21712891 2.78314453 -4.21712891 2.78314453 -3 2 C-2.01 1.34 -1.02 0.68 0 0 Z " fill="#406B91" transform="translate(509,474)"/>
<path d="M0 0 C1.77586005 3.5517201 2.48627846 5.91767077 3.125 9.75 C3.29257812 10.73484375 3.46015625 11.7196875 3.6328125 12.734375 C3.81457031 13.85585938 3.81457031 13.85585938 4 15 C2.68 15 1.36 15 0 15 C0 10.05 0 5.1 0 0 Z " fill="#C34E39" transform="translate(643,614)"/>
<path d="M0 0 C0.49628906 0.37511719 0.99257813 0.75023437 1.50390625 1.13671875 C5.95741524 4.49163919 10.45004098 7.77711236 15 11 C14.67 11.99 14.34 12.98 14 14 C11.84754453 12.23672285 9.70314214 10.46501751 7.5625 8.6875 C6.95083984 8.18798828 6.33917969 7.68847656 5.70898438 7.17382812 C1.11328125 3.33984375 1.11328125 3.33984375 0 0 Z " fill="#4A779E" transform="translate(306,475)"/>
<path d="M0 0 C0.99 0.33 1.98 0.66 3 1 C3.33 2.98 3.66 4.96 4 7 C2.35 7 0.7 7 -1 7 C-1.04254356 5.00045254 -1.04080783 2.99958364 -1 1 C-0.67 0.67 -0.34 0.34 0 0 Z " fill="#BF5443" transform="translate(289,622)"/>
<path d="M0 0 C0.33 0 0.66 0 1 0 C1 4.62 1 9.24 1 14 C0.01 14 -0.98 14 -2 14 C-1.85795259 12.41632253 -1.71119847 10.83306682 -1.5625 9.25 C-1.48128906 8.36828125 -1.40007812 7.4865625 -1.31640625 6.578125 C-1.03761535 4.30649548 -0.61209423 2.20148177 0 0 Z " fill="#C34E39" transform="translate(169,615)"/>
<path d="M0 0 C0.99 0 1.98 0 3 0 C2.34 4.62 1.68 9.24 1 14 C0.67 14 0.34 14 0 14 C0 9.38 0 4.76 0 0 Z " fill="#C1513F" transform="translate(489,583)"/>
<path d="M0 0 C0.66 0.33 1.32 0.66 2 1 C1.67 1.33 1.34 1.66 1 2 C1.99 2.66 2.98 3.32 4 4 C1.36 4 -1.28 4 -4 4 C-4 3.34 -4 2.68 -4 2 C-2.125 0.9375 -2.125 0.9375 0 0 Z " fill="#4B79A0" transform="translate(510,541)"/>
<path d="M0 0 C1.98 0.99 1.98 0.99 4 2 C3.67 4.64 3.34 7.28 3 10 C2.67 10 2.34 10 2 10 C1.34 6.7 0.68 3.4 0 0 Z " fill="#B87571" transform="translate(304,538)"/>
</svg>
